<?xml version="1.0" encoding="UTF-8"?>
<svg version="1.1" xmlns="http://www.w3.org/2000/svg" width="187" height="172">
<path d="M0 0 C61.71 0 123.42 0 187 0 C187 56.76 187 113.52 187 172 C125.29 172 63.58 172 0 172 C0 115.24 0 58.48 0 0 Z " fill="#FEFDFE" transform="translate(0,0)"/>
<path d="M0 0 C1.25393555 0.02030273 1.25393555 0.02030273 2.53320312 0.04101562 C4.58491498 0.07618783 6.63629275 0.12998952 8.6875 0.1875 C8.02933729 5.54247081 6.90025078 10.62345491 5.5078125 15.83203125 C5.29438202 16.64185959 5.08095154 17.45168793 4.86105347 18.28605652 C4.4106954 19.99173406 3.95844305 21.69691246 3.50439453 23.40161133 C2.81761023 25.98080869 2.1368122 28.56152713 1.45703125 31.14257812 C0.59620078 34.40707433 -0.2799525 37.66682902 -1.16870117 40.92382812 C-1.85670179 43.44907435 -2.48992783 45.96102858 -3.07543945 48.51367188 C-4.58159883 54.7067208 -4.58159883 54.7067208 -8.24609375 57.1171875 C-9.40238281 57.42914063 -10.55867188 57.74109375 -11.75 58.0625 C-13.61398438 58.60390625 -13.61398438 58.60390625 -15.515625 59.15625 C-16.76859375 59.4965625 -18.0215625 59.836875 -19.3125 60.1875 C-21.54541882 60.96852093 -23.77495787 61.75931406 -26 62.5625 C-30.9367623 64.3127459 -30.9367623 64.3127459 -34.3125 63.1875 C-31.70674003 51.80761835 -28.97974874 40.50942708 -25.5625 29.34375 C-24.6681583 26.42037056 -23.84654032 23.48610197 -23.0625 20.53125 C-22.85302734 19.76264648 -22.64355469 18.99404297 -22.42773438 18.20214844 C-22.03055255 16.74014105 -21.64552287 15.2747526 -21.27539062 13.80566406 C-19.63672578 7.89209636 -16.72705897 5.13690751 -12.08203125 1.38671875 C-8.04568585 -0.36103589 -4.34401256 -0.13371467 0 0 Z " fill="#6044C6" transform="translate(101.3125,49.8125)"/>
<path d="M0 0 C-1.05205656 6.98753981 -2.64514392 13.79694503 -4.4375 20.625 C-4.64270264 21.41173096 -4.84790527 22.19846191 -5.05932617 23.0090332 C-10.06087946 41.7770832 -10.06087946 41.7770832 -16.01953125 46.65234375 C-20.30216393 48.58878972 -24.174531 48.322385 -28.8125 48.1875 C-30.13797852 48.16719727 -30.13797852 48.16719727 -31.49023438 48.14648438 C-33.66042023 48.11129217 -35.83029033 48.05748985 -38 48 C-37.69008086 44.99593226 -37.35591379 41.9987514 -37 39 C-36.90412598 38.13810059 -36.80825195 37.27620117 -36.70947266 36.38818359 C-34.60821165 20.25678214 -34.60821165 20.25678214 -28.67382812 14.90039062 C-23.28358775 11.29012912 -17.50014785 8.69241259 -11.53564453 6.18310547 C-7.86225727 4.46914103 -3.91925633 0 0 0 Z " fill="#5739B2" transform="translate(135,90)"/>
<path d="M0 0 C0.82693359 0.01804687 1.65386719 0.03609375 2.50585938 0.0546875 C4.52524933 0.1013786 6.54403445 0.17310607 8.5625 0.25 C7.33689787 6.52057327 5.87335932 12.72723752 4.375 18.9375 C4.09591797 20.18595703 3.81683594 21.43441406 3.52929688 22.72070312 C3.23732422 23.90986328 2.94535156 25.09902344 2.64453125 26.32421875 C2.38905518 27.41307373 2.1335791 28.50192871 1.87036133 29.6237793 C0.5625 32.25 0.5625 32.25 -2.24389648 33.58081055 C-5.05777234 34.17043166 -7.75521648 34.63548167 -10.6171875 34.8828125 C-11.5453125 34.96660156 -12.4734375 35.05039063 -13.4296875 35.13671875 C-14.38101563 35.21535156 -15.33234375 35.29398438 -16.3125 35.375 C-17.28703125 35.46136719 -18.2615625 35.54773438 -19.265625 35.63671875 C-21.65576446 35.84761341 -24.04627625 36.05184637 -26.4375 36.25 C-25.80563872 30.64539047 -24.92245666 25.19002867 -23.6875 19.6875 C-23.543125 18.97142578 -23.39875 18.25535156 -23.25 17.51757812 C-21.75727237 10.90262788 -18.97786643 5.64630628 -13.21484375 1.828125 C-8.91496519 -0.35853051 -4.72467519 -0.19797189 0 0 Z " fill="#6D54DC" transform="translate(56.4375,84.75)"/>
<path d="M0 0 C0.89589844 0.00322266 1.79179687 0.00644531 2.71484375 0.00976562 C4.12056641 0.02233398 4.12056641 0.02233398 5.5546875 0.03515625 C6.49957031 0.03966797 7.44445312 0.04417969 8.41796875 0.04882812 C10.75527137 0.06063268 13.09244811 0.07709866 15.4296875 0.09765625 C15.27757812 0.98066406 15.12546875 1.86367188 14.96875 2.7734375 C14.64973294 4.7407094 14.37577525 6.7176471 14.203125 8.703125 C13.29483696 14.58918771 11.21748175 17.77140513 6.61450195 21.33789062 C3.29377944 23.7145642 -0.10808628 25.9334666 -3.5703125 28.09765625 C-4.27559082 28.54512207 -4.98086914 28.99258789 -5.70751953 29.45361328 C-17.82339751 37.09765625 -17.82339751 37.09765625 -20.5703125 37.09765625 C-20.02421166 31.22707227 -18.34218197 25.91616753 -16.53125 20.31640625 C-15.71734082 17.59014135 -15.18964997 15.02480162 -14.7578125 12.22265625 C-13.73901442 7.15670614 -10.51788603 4.22592207 -6.5703125 1.09765625 C-4.16971433 -0.10264283 -2.67670601 -0.01694118 0 0 Z " fill="#6B52DB" transform="translate(127.5703125,61.90234375)"/>
<path d="M0 0 C-4.05456634 19.33716255 -4.05456634 19.33716255 -9 24 C-14.20366819 27.29910969 -18.42789592 27.37245778 -24.375 27.1875 C-25.20644531 27.17396484 -26.03789063 27.16042969 -26.89453125 27.14648438 C-28.92997066 27.11139059 -30.96507291 27.05759228 -33 27 C-32.71367823 25.14500045 -32.42065585 23.29103476 -32.125 21.4375 C-31.96257813 20.40496094 -31.80015625 19.37242187 -31.6328125 18.30859375 C-31.42398438 17.21675781 -31.21515625 16.12492187 -31 15 C-30.78923828 13.17082031 -30.78923828 13.17082031 -30.57421875 11.3046875 C-29 8 -29 8 -26.95117188 6.91723633 C-24.21643888 6.01824232 -21.49462424 5.32488454 -18.6875 4.6875 C-16.79511104 4.21408202 -14.90316812 3.73887684 -13.01171875 3.26171875 C-12.17084717 3.06537842 -11.32997559 2.86903809 -10.46362305 2.66674805 C-7.93676536 2.03806547 -7.93676536 2.03806547 -5.37426758 0.92114258 C-3 0 -3 0 0 0 Z " fill="#5031A6" transform="translate(94,111)"/>
<path d="M0 0 C0.33 0 0.66 0 1 0 C1.495 2.475 1.495 2.475 2 5 C2.515625 4.175 3.03125 3.35 3.5625 2.5 C6 0 6 0 9.5 -0.4375 C12.57737588 -0.05282802 14.4256806 0.35243558 17 2 C17.48192771 9.22891566 17.48192771 9.22891566 15.4375 12.5 C13 14 13 14 9.6875 13.875 C5.09997127 14.03050945 3.66905134 15.4103906 0.3828125 18.39453125 C-1.232281 20.06431306 -1.232281 20.06431306 -2 23 C-2.99 23.66 -3.98 24.32 -5 25 C-5.60602665 27.36195411 -5.60602665 27.36195411 -6 30 C-6.63437344 31.6792238 -7.29289322 33.35008418 -8 35 C-8.93423645 31.98968256 -9.04449911 31.13349732 -8 28 C-8.74121094 28.47308594 -9.48242188 28.94617188 -10.24609375 29.43359375 C-17.46754571 33.96799382 -24.77706689 38.09674474 -32.43725586 41.85327148 C-36.54000285 43.87818823 -36.54000285 43.87818823 -39.48828125 47.265625 C-39.65714844 47.83796875 -39.82601562 48.4103125 -40 49 C-40 47.68 -40 46.36 -40 45 C-41.0725 45.350625 -42.145 45.70125 -43.25 46.0625 C-46.78720743 46.94680186 -47.74811124 47.02880551 -51 46 C-49.50146484 45.31164062 -49.50146484 45.31164062 -47.97265625 44.609375 C-46.66891492 43.99033235 -45.36554866 43.37049936 -44.0625 42.75 C-43.40314453 42.44964844 -42.74378906 42.14929688 -42.06445312 41.83984375 C-38.27447765 40.1113686 -38.27447765 40.1113686 -36.05859375 36.765625 C-36.03925781 36.18296875 -36.01992187 35.6003125 -36 35 C-36 35.66 -36 36.32 -36 37 C-30.1189351 33.55000572 -24.27653659 30.04278573 -18.46191406 26.48193359 C-16.46161271 25.27786485 -14.44832306 24.13517693 -12.3984375 23.01953125 C-5.07500882 18.61135173 -3.2333102 13.61762921 -1.21508789 5.63793945 C-0.78259115 3.76475681 -0.38730815 1.88304515 0 0 Z " fill="#E9D2D7" transform="translate(143,62)"/>
<path d="M0 0 C-0.71578888 6.01262656 -2.13733351 10.80818063 -6.99609375 14.6640625 C-11.49580683 17.77391855 -15.6319478 17.57475163 -20.9375 17.3125 C-21.81212891 17.28994141 -22.68675781 17.26738281 -23.58789062 17.24414062 C-25.72601121 17.18572203 -27.86323956 17.09605816 -30 17 C-29.69147815 15.041036 -29.3780582 13.08284287 -29.0625 11.125 C-28.80146484 9.48917969 -28.80146484 9.48917969 -28.53515625 7.8203125 C-28 5 -28 5 -27 3 C-24.83862305 2.49755859 -24.83862305 2.49755859 -22.01171875 2.1484375 C-20.99529297 2.01953125 -19.97886719 1.890625 -18.93164062 1.7578125 C-17.86107422 1.63148437 -16.79050781 1.50515625 -15.6875 1.375 C-14.62853516 1.2409375 -13.56957031 1.106875 -12.47851562 0.96875 C-8.27363284 0.44812017 -4.24310858 0 0 0 Z " fill="#45238B" transform="translate(55,121)"/>
<path d="M0 0 C0 0.66 0 1.32 0 2 C-0.66 2.33 -1.32 2.66 -2 3 C-1.01 4.98 -1.01 4.98 0 7 C-1.29164062 7.18755859 -1.29164062 7.18755859 -2.609375 7.37890625 C-5.95247997 7.99129529 -9.02144601 8.8838463 -12.25 9.9375 C-21.12156955 12.71678853 -29.74283438 14.25154831 -39 15 C-39.33 15.99 -39.66 16.98 -40 18 C-40 17.34 -40 16.68 -40 16 C-41.11117187 16.2165625 -42.22234375 16.433125 -43.3671875 16.65625 C-51.34506821 18.1653849 -58.842877 19.38843443 -67 19 C-66.67 17.02 -66.34 15.04 -66 13 C-65.67 13.99 -65.34 14.98 -65 16 C-61.62483247 15.52200865 -58.24989719 15.0423961 -54.875 14.5625 C-53.92367187 14.42779297 -52.97234375 14.29308594 -51.9921875 14.15429688 C-47.3181013 13.48888877 -42.65232392 12.8067161 -38 12 C-37.67 11.01 -37.34 10.02 -37 9 C-37 9.99 -37 10.98 -37 12 C-35.77152344 11.59007813 -34.54304688 11.18015625 -33.27734375 10.7578125 C-29.50006031 9.49847138 -25.72108014 8.24433478 -21.94140625 6.9921875 C-19.81509744 6.28647859 -17.68879546 5.58074913 -15.5625 4.875 C-14.47517578 4.51535156 -13.38785156 4.15570313 -12.26757812 3.78515625 C-11.23181641 3.44097656 -10.19605469 3.09679687 -9.12890625 2.7421875 C-7.72233765 2.27594971 -7.72233765 2.27594971 -6.28735352 1.80029297 C-1.14185479 0 -1.14185479 0 0 0 Z " fill="#F1E4E4" transform="translate(95,105)"/>
<path d="M0 0 C1.25393555 0.02030273 1.25393555 0.02030273 2.53320312 0.04101562 C4.58491498 0.07618783 6.63629275 0.12998952 8.6875 0.1875 C8.3575 1.5075 8.0275 2.8275 7.6875 4.1875 C7.6875 3.5275 7.6875 2.8675 7.6875 2.1875 C5.47845369 2.27525663 3.27021407 2.38344367 1.0625 2.5 C-0.78214844 2.58701172 -0.78214844 2.58701172 -2.6640625 2.67578125 C-8.42531915 3.48383759 -11.83187865 5.27589402 -15.5078125 9.7421875 C-18.70737261 14.30672629 -20.00695164 18.9191729 -21.1875 24.3125 C-21.39890625 25.18003906 -21.6103125 26.04757813 -21.828125 26.94140625 C-22.89050921 31.47378563 -23.40208529 35.51528266 -23.3125 40.1875 C-23.86328125 42.390625 -23.86328125 42.390625 -24.625 44.4375 C-26.12595658 48.62737406 -27.42033044 52.84827233 -28.6640625 57.12109375 C-29.3125 59.1875 -29.3125 59.1875 -30.3125 61.1875 C-28.9821875 60.6925 -28.9821875 60.6925 -27.625 60.1875 C-24.60326653 59.27527857 -22.42876294 59.00419042 -19.3125 59.1875 C-21.91792016 60.92444677 -23.89592775 61.87850448 -26.8125 62.875 C-27.5859375 63.14699219 -28.359375 63.41898438 -29.15625 63.69921875 C-31.3125 64.1875 -31.3125 64.1875 -34.3125 63.1875 C-31.70674003 51.80761835 -28.97974874 40.50942708 -25.5625 29.34375 C-24.6681583 26.42037056 -23.84654032 23.48610197 -23.0625 20.53125 C-22.85302734 19.76264648 -22.64355469 18.99404297 -22.42773438 18.20214844 C-22.03055255 16.74014105 -21.64552287 15.2747526 -21.27539062 13.80566406 C-19.63672578 7.89209636 -16.72705897 5.13690751 -12.08203125 1.38671875 C-8.04568585 -0.36103589 -4.34401256 -0.13371467 0 0 Z " fill="#937FEB" transform="translate(101.3125,49.8125)"/>
<path d="M0 0 C-1.0440365 6.68183363 -2.4042476 12.7465965 -5 19 C-5.33 18.01 -5.66 17.02 -6 16 C-6.99 16.99 -7.98 17.98 -9 19 C-9.66 18.67 -10.32 18.34 -11 18 C-11 17.34 -11 16.68 -11 16 C-11.66 16 -12.32 16 -13 16 C-13.66 15.01 -14.32 14.02 -15 13 C-15.66 13 -16.32 13 -17 13 C-17.433125 13.8971875 -17.433125 13.8971875 -17.875 14.8125 C-19 17 -19 17 -21 20 C-21 18.68 -21 17.36 -21 16 C-21.99 16.33 -22.98 16.66 -24 17 C-24.495 18.2375 -24.495 18.2375 -25 19.5 C-25.495 20.7375 -25.495 20.7375 -26 22 C-26.99 22.33 -27.98 22.66 -29 23 C-28.55502922 18.10532139 -27.74794798 16.1485091 -24 13 C-21.06699132 11.18541201 -18.04319436 9.5587545 -15 7.9375 C-13.3943372 7.07439212 -11.79011905 6.20859022 -10.1875 5.33984375 C-9.47980469 4.96206787 -8.77210937 4.58429199 -8.04296875 4.19506836 C-5.92444156 3.0137622 -5.92444156 3.0137622 -3.86328125 1.35375977 C-2 0 -2 0 0 0 Z " fill="#411C80" transform="translate(135,90)"/>
<path d="M0 0 C3.5 0.25 3.5 0.25 5.5 2.25 C5.96382725 5.80600891 5.92769679 7.59990088 3.9375 10.625 C1.5 12.25 1.5 12.25 -1.6875 12 C-6.83213191 12.33735291 -8.50120976 14.55232786 -12.1171875 18.02734375 C-17.5014922 23.04975256 -28.90294939 33.25 -36.5 33.25 C-36.5 32.59 -36.5 31.93 -36.5 31.25 C-34.31969855 29.71707097 -32.13127022 28.28823186 -29.875 26.875 C-24.23660672 23.21529963 -18.85512197 19.36452823 -13.6875 15.0625 C-13.09565918 14.58828613 -12.50381836 14.11407227 -11.89404297 13.62548828 C-7.89296505 10.21394401 -6.68599158 7.48969827 -5.5 2.25 C-3.5 0.25 -3.5 0.25 0 0 Z " fill="#F28E49" transform="translate(154.5,63.75)"/>
<path d="M0 0 C0.89589844 0.00322266 1.79179687 0.00644531 2.71484375 0.00976562 C4.12056641 0.02233398 4.12056641 0.02233398 5.5546875 0.03515625 C6.49957031 0.03966797 7.44445312 0.04417969 8.41796875 0.04882812 C10.75527137 0.06063268 13.09244811 0.07709866 15.4296875 0.09765625 C15.0996875 1.41765625 14.7696875 2.73765625 14.4296875 4.09765625 C14.4296875 3.43765625 14.4296875 2.77765625 14.4296875 2.09765625 C11.88563112 2.15808514 9.34712019 2.24524653 6.8046875 2.34765625 C6.09183594 2.36183594 5.37898438 2.37601562 4.64453125 2.390625 C-1.6310262 2.67849461 -5.44390379 4.78898394 -9.7578125 9.47265625 C-12.38784727 13.72872912 -12.95633069 18.81558915 -13.859375 23.66015625 C-14.5703125 27.09765625 -14.5703125 27.09765625 -15.65625 30.34765625 C-16.72802194 33.08914384 -16.72802194 33.08914384 -16.5703125 36.09765625 C-18.5503125 36.59265625 -18.5503125 36.59265625 -20.5703125 37.09765625 C-20.02421166 31.22707227 -18.34218197 25.91616753 -16.53125 20.31640625 C-15.71734082 17.59014135 -15.18964997 15.02480162 -14.7578125 12.22265625 C-13.73901442 7.15670614 -10.51788603 4.22592207 -6.5703125 1.09765625 C-4.16971433 -0.10264283 -2.67670601 -0.01694118 0 0 Z " fill="#AA94E3" transform="translate(127.5703125,61.90234375)"/>
<path d="M0 0 C0.33 0 0.66 0 1 0 C1.0270043 1.45823212 1.04639787 2.91660675 1.0625 4.375 C1.07410156 5.18710938 1.08570312 5.99921875 1.09765625 6.8359375 C1 9 1 9 0 11 C-0.23029956 13.37123246 -0.41119942 15.74741943 -0.5625 18.125 C-0.64628906 19.40632813 -0.73007813 20.68765625 -0.81640625 22.0078125 C-0.90728516 23.48894531 -0.90728516 23.48894531 -1 25 C2.20344581 25.04250011 4.91810344 24.91315454 8 24 C8 24.66 8 25.32 8 26 C9.98 25.34 11.96 24.68 14 24 C14 23.34 14 22.68 14 22 C14.66 22 15.32 22 16 22 C16.33 21.34 16.66 20.68 17 20 C17.66 20 18.32 20 19 20 C19.33 18.35 19.66 16.7 20 15 C20.99 15 21.98 15 23 15 C21.23186986 20.62586863 17.83239156 23.77840563 13 27 C10.9152832 27.22705078 10.9152832 27.22705078 8.55078125 27.1953125 C7.27944336 27.18564453 7.27944336 27.18564453 5.98242188 27.17578125 C5.10134766 27.15902344 4.22027344 27.14226562 3.3125 27.125 C2.41982422 27.11597656 1.52714844 27.10695312 0.60742188 27.09765625 C-1.59532314 27.07409748 -3.79752588 27.04120329 -6 27 C-5.43755107 20.54153469 -4.26271535 14.64936738 -2.4375 8.4375 C-2.20353516 7.61958984 -1.96957031 6.80167969 -1.72851562 5.95898438 C-1.15880046 3.97079473 -0.58033086 1.98511701 0 0 Z " fill="#7C69D9" transform="translate(103,111)"/>
<path d="M0 0 C0.83595703 0.01353516 1.67191406 0.02707031 2.53320312 0.04101562 C4.58491498 0.07618783 6.63629275 0.12998952 8.6875 0.1875 C8.3575 1.5075 8.0275 2.8275 7.6875 4.1875 C7.6875 3.5275 7.6875 2.8675 7.6875 2.1875 C5.47845369 2.27525663 3.27021407 2.38344367 1.0625 2.5 C-0.78214844 2.58701172 -0.78214844 2.58701172 -2.6640625 2.67578125 C-8.02930633 3.42829403 -12.13553588 5.24618469 -15.5 9.5625 C-19.26609396 14.8409624 -20.22043199 20.90331919 -21.3125 27.1875 C-22.3025 27.1875 -23.2925 27.1875 -24.3125 27.1875 C-20.24671053 7.79681174 -20.24671053 7.79681174 -12.23046875 1.5703125 C-8.11356309 -0.3806709 -4.48992781 -0.13820614 0 0 Z " fill="#9F83D4" transform="translate(101.3125,49.8125)"/>
<path d="M0 0 C0.66 0.4125 1.32 0.825 2 1.25 C-1.69799798 5.27201304 -5.41635747 7.93513102 -10.1875 10.5625 C-10.81591797 10.92150391 -11.44433594 11.28050781 -12.09179688 11.65039062 C-16.72157738 14.25 -16.72157738 14.25 -19 14.25 C-18.40380045 9.38103697 -17.43023178 4.92209049 -16 0.25 C-15.34 0.58 -14.68 0.91 -14 1.25 C-14.165 2.219375 -14.33 3.18875 -14.5 4.1875 C-14.85992293 6.20983571 -14.85992293 6.20983571 -15 8.25 C-14.01 7.92 -13.02 7.59 -12 7.25 C-11.85046875 6.61835937 -11.7009375 5.98671875 -11.546875 5.3359375 C-11 3.25 -11 3.25 -9.328125 1.9140625 C-3.66666667 -0.91666667 -3.66666667 -0.91666667 0 0 Z " fill="#7C67F1" transform="translate(129,82.75)"/>
<path d="M0 0 C0.33 0 0.66 0 1 0 C1.33 1.98 1.66 3.96 2 6 C1.01 6 0.02 6 -1 6 C-1.33 6.99 -1.66 7.98 -2 9 C-2 8.34 -2 7.68 -2 7 C-3.11117187 7.2165625 -4.22234375 7.433125 -5.3671875 7.65625 C-13.34506821 9.1653849 -20.842877 10.38843443 -29 10 C-28.67 8.02 -28.34 6.04 -28 4 C-27.67 4.99 -27.34 5.98 -27 7 C-23.62483247 6.52200865 -20.24989719 6.0423961 -16.875 5.5625 C-15.44800781 5.36043945 -15.44800781 5.36043945 -13.9921875 5.15429688 C-9.3181013 4.48888877 -4.65232392 3.8067161 0 3 C0 2.01 0 1.02 0 0 Z " fill="#EDE4F8" transform="translate(57,114)"/>
<path d="M0 0 C0.82693359 0.01804687 1.65386719 0.03609375 2.50585938 0.0546875 C4.52524933 0.1013786 6.54403445 0.17310607 8.5625 0.25 C8.2325 1.57 7.9025 2.89 7.5625 4.25 C6.428125 4.16878906 5.29375 4.08757812 4.125 4.00390625 C-5.76048683 3.20093124 -5.76048683 3.20093124 -14.25 7.5 C-15.34924351 8.7178136 -16.41702283 9.96546405 -17.4375 11.25 C-18.2625 12.054375 -19.0875 12.85875 -19.9375 13.6875 C-20.4325 14.203125 -20.9275 14.71875 -21.4375 15.25 C-20.98203941 10.35379869 -19.92647047 7.73897047 -16.4375 4.25 C-10.79248576 0.31362992 -6.79149237 -0.28457502 0 0 Z " fill="#9179D4" transform="translate(56.4375,84.75)"/>
<path d="M0 0 C0.33 0 0.66 0 1 0 C1.33 1.65 1.66 3.3 2 5 C2.515625 4.175 3.03125 3.35 3.5625 2.5 C6 0 6 0 9.5 -0.4375 C12.57737588 -0.05282802 14.4256806 0.35243558 17 2 C16.67 2.66 16.34 3.32 16 4 C15.67 3.67 15.34 3.34 15 3 C11.54178598 2.74996036 11.54178598 2.74996036 8 3 C5.70383517 4.94049594 5.70383517 4.94049594 5.25 8.3125 C3.66678769 12.98297632 1.93186714 14.1793127 -2 17 C-3.1087792 13.67366241 -2.86099192 12.41479194 -2.125 9.0625 C-1.94195312 8.20785156 -1.75890625 7.35320312 -1.5703125 6.47265625 C-1.07107627 4.30815944 -0.54930344 2.15227076 0 0 Z " fill="#F8F0F0" transform="translate(143,62)"/>
<path d="M0 0 C0.93618772 2.52770685 1.06267387 3.78670109 0.29296875 6.40625 C-5.11568597 17.25624014 -22.25647006 24.62975053 -33 29 C-33.33 27.68 -33.66 26.36 -34 25 C-33.67 25.66 -33.34 26.32 -33 27 C-13.70073185 17.75835503 -13.70073185 17.75835503 -0.3125 3 C-0.209375 2.01 -0.10625 1.02 0 0 Z " fill="#F0DCED" transform="translate(140,72)"/>
<path d="M0 0 C0.99 0.66 1.98 1.32 3 2 C-19.00361664 20 -19.00361664 20 -25 20 C-25 19.34 -25 18.68 -25 18 C-22.73771215 16.37718552 -20.47311868 14.86424211 -18.125 13.375 C-11.76003521 9.24853856 -5.80700307 4.89154612 0 0 Z " fill="#F19F5B" transform="translate(143,77)"/>
<path d="M0 0 C-0.28094582 1.8141927 -0.57506433 3.62635001 -0.875 5.4375 C-1.03742188 6.44683594 -1.19984375 7.45617187 -1.3671875 8.49609375 C-1.57601562 9.32238281 -1.78484375 10.14867188 -2 11 C-2.99 11.495 -2.99 11.495 -4 12 C-4 11.34 -4 10.68 -4 10 C-4.99 10 -5.98 10 -7 10 C-7 10.66 -7 11.32 -7 12 C-7.99 12 -8.98 12 -10 12 C-10.33 10.02 -10.66 8.04 -11 6 C-9.54550599 4.9944239 -8.08627557 3.99569565 -6.625 3 C-5.40683594 2.1646875 -5.40683594 2.1646875 -4.1640625 1.3125 C-2 0 -2 0 0 0 Z " fill="#3C1975" transform="translate(135,90)"/>
<path d="M0 0 C0.33 0 0.66 0 1 0 C1.0270043 1.45823212 1.04639787 2.91660675 1.0625 4.375 C1.07410156 5.18710938 1.08570312 5.99921875 1.09765625 6.8359375 C1 9 1 9 0 11 C-0.23172827 13.54615009 -0.41894529 16.07396225 -0.5625 18.625 C-0.60568359 19.33140625 -0.64886719 20.0378125 -0.69335938 20.765625 C-0.79944751 22.51018537 -0.90022889 24.25506697 -1 26 C-1.99 26 -2.98 26 -4 26 C-4.62596368 16.50621746 -2.97647055 8.98256292 0 0 Z " fill="#664CC9" transform="translate(103,111)"/>
<path d="M0 0 C0.66 0.66 1.32 1.32 2 2 C1.98252112 4.59269983 1.86231408 7.0525154 1.625 9.625 C1.56828125 10.33140625 1.5115625 11.0378125 1.453125 11.765625 C1.31159079 13.51121361 1.15702613 15.25573673 1 17 C1.99 17.66 2.98 18.32 4 19 C1.36 19 -1.28 19 -4 19 C-3.00318287 12.54189755 -1.98363508 6.23428168 0 0 Z " fill="#6247A9" transform="translate(65,119)"/>
<path d="M0 0 C0 0.66 0 1.32 0 2 C-0.99 2.495 -0.99 2.495 -2 3 C-1.34 4.32 -0.68 5.64 0 7 C-0.886875 7.144375 -1.77375 7.28875 -2.6875 7.4375 C-5.47117646 7.91019978 -8.23483757 8.43070185 -11 9 C-11 8.34 -11 7.68 -11 7 C-9.68 6.34 -8.36 5.68 -7 5 C-8.12148437 5.34224609 -8.12148437 5.34224609 -9.265625 5.69140625 C-10.25046875 5.97886719 -11.2353125 6.26632813 -12.25 6.5625 C-13.22453125 6.85253906 -14.1990625 7.14257812 -15.203125 7.44140625 C-18.03164137 8.00631944 -19.30742365 7.78911648 -22 7 C-21.19780029 6.73521851 -21.19780029 6.73521851 -20.37939453 6.46508789 C-17.96074202 5.66579184 -15.54286513 4.86417455 -13.125 4.0625 C-12.28324219 3.78470703 -11.44148438 3.50691406 -10.57421875 3.22070312 C-9.76855469 2.95322266 -8.96289062 2.68574219 -8.1328125 2.41015625 C-7.38918457 2.16402588 -6.64555664 1.91789551 -5.87939453 1.66430664 C-1.17089305 0 -1.17089305 0 0 0 Z " fill="#E8DAF3" transform="translate(95,105)"/>
<path d="M0 0 C-7.62545341 6.10036273 -17.20653559 10.96910901 -27 12 C-25.66248996 9.32497991 -24.53704659 9.30594725 -21.75 8.3125 C-16.10344801 6.17772854 -10.99517454 3.30471949 -5.78515625 0.29296875 C-3 -1 -3 -1 0 0 Z " fill="#F3CDA9" transform="translate(119,97)"/>
<path d="M0 0 C0.66 1.32 1.32 2.64 2 4 C-0.86075176 8.07106981 -3.37810146 10.13157293 -8 12 C-8.99 12 -9.98 12 -11 12 C-11 11.01 -11 10.02 -11 9 C-8.525 9.495 -8.525 9.495 -6 10 C-6.33 8.68 -6.66 7.36 -7 6 C-4.69 4.02 -2.38 2.04 0 0 Z " fill="#5C42B8" transform="translate(87,126)"/>
<path d="M0 0 C2.18867962 4.37735924 -0.67407319 11.00411253 -2.125 15.4375 C-2.41375 16.283125 -2.7025 17.12875 -3 18 C-3 18.99 -3 19.98 -3 21 C-4.32 21.33 -5.64 21.66 -7 22 C-6.34829317 14.9941516 -5.06023557 5.06023557 0 0 Z " fill="#9A86EF" transform="translate(114,77)"/>
<path d="M0 0 C0.33 0 0.66 0 1 0 C1.042721 1.66611905 1.04063832 3.33382885 1 5 C0 6 0 6 -3.375 6.375 C-7.09023343 7.01555749 -7.68109346 7.33325748 -10 10 C-10.99 10 -11.98 10 -13 10 C-11.95125002 7.37812506 -11.35068687 6.20628639 -8.875 4.75 C-8.25625 4.5025 -7.6375 4.255 -7 4 C-7 3.34 -7 2.68 -7 2 C-4.69 2 -2.38 2 0 2 C0 1.34 0 0.68 0 0 Z " fill="#EF802F" transform="translate(157,68)"/>
<path d="M0 0 C1.32 0.33 2.64 0.66 4 1 C3.01 1 2.02 1 1 1 C1.33 1.99 1.66 2.98 2 4 C1.34 4.66 0.68 5.32 0 6 C-0.33 7.65 -0.66 9.3 -1 11 C2.63 11.66 6.26 12.32 10 13 C10.33 12.34 10.66 11.68 11 11 C11 11.66 11 12.32 11 13 C14.465 12.505 14.465 12.505 18 12 C16 14 16 14 14.02880859 14.22705078 C13.24328613 14.21657715 12.45776367 14.20610352 11.6484375 14.1953125 C10.79765625 14.18886719 9.946875 14.18242187 9.0703125 14.17578125 C7.73613281 14.15064453 7.73613281 14.15064453 6.375 14.125 C5.02921875 14.11146484 5.02921875 14.11146484 3.65625 14.09765625 C1.43723414 14.0740497 -0.78125077 14.0411231 -3 14 C-2.69147815 12.041036 -2.3780582 10.08284287 -2.0625 8.125 C-1.88847656 7.03445312 -1.71445312 5.94390625 -1.53515625 4.8203125 C-1 2 -1 2 0 0 Z " fill="#543A9E" transform="translate(28,124)"/>
<path d="M0 0 C0.33 0 0.66 0 1 0 C1.33 1.98 1.66 3.96 2 6 C1.01 6 0.02 6 -1 6 C-1.33 6.99 -1.66 7.98 -2 9 C-2 8.34 -2 7.68 -2 7 C-2.515625 7.165 -3.03125 7.33 -3.5625 7.5 C-6.73363876 8.15049 -9.77218334 8.0620734 -13 8 C-12.01 7.67 -11.02 7.34 -10 7 C-10 6.34 -10 5.68 -10 5 C-6.7 4.34 -3.4 3.68 0 3 C0 2.01 0 1.02 0 0 Z " fill="#F2EAF8" transform="translate(57,114)"/>
<path d="M0 0 C2.4375 1 2.4375 1 4 2 C3.67 2.66 3.34 3.32 3 4 C2.67 3.67 2.34 3.34 2 3 C-1.45821402 2.74996036 -1.45821402 2.74996036 -5 3 C-7.6855594 5.6855594 -8.06049974 8.37621328 -9 12 C-9.33 12 -9.66 12 -10 12 C-10.35789474 4.84210526 -10.35789474 4.84210526 -8.9375 1.5 C-5.9659372 -0.80056475 -3.64662949 -0.38385574 0 0 Z " fill="#FCD9B6" transform="translate(156,62)"/>
<path d="M0 0 C1.66312767 3.32625534 0.4758594 6.13882621 -0.578125 9.57421875 C-2.89360474 13.52452896 -6.18273766 14.28559335 -10.40625 15.57421875 C-13 16 -13 16 -16 15 C-15 14 -15 14 -12.4375 13.9375 C-11.633125 13.958125 -10.82875 13.97875 -10 14 C-10 13.34 -10 12.68 -10 12 C-9.030625 11.5875 -8.06125 11.175 -7.0625 10.75 C-3.87739901 9.35100832 -3.87739901 9.35100832 -3.125 6.8125 C-3.08375 6.214375 -3.0425 5.61625 -3 5 C-2.34 5 -1.68 5 -1 5 C-0.67 3.35 -0.34 1.7 0 0 Z " fill="#897BEE" transform="translate(98,93)"/>
<path d="M0 0 C0.66 0 1.32 0 2 0 C1.67 1.98 1.34 3.96 1 6 C-4.82748619 8.42811925 -10.7757491 8.61727907 -17 9 C-13.75657068 6.35823028 -12.19665434 5.77315382 -8 6 C-7.67 5.67 -7.34 5.34 -7 5 C-5.00041636 4.95919217 -2.99954746 4.95745644 -1 5 C-0.67 3.35 -0.34 1.7 0 0 Z " fill="#9182EF" transform="translate(56,111)"/>
<path d="M0 0 C1.8125 1.5 1.8125 1.5 3 3 C2.01 4.485 2.01 4.485 1 6 C1 5.34 1 4.68 1 4 C-0.32 3.67 -1.64 3.34 -3 3 C-3.33 3.99 -3.66 4.98 -4 6 C-4.99 6.33 -5.98 6.66 -7 7 C-7 6.34 -7 5.68 -7 5 C-6.34 4.67 -5.68 4.34 -5 4 C-5.99 3.67 -6.98 3.34 -8 3 C-8 2.34 -8 1.68 -8 1 C-4.99825776 -0.00058075 -3.12414314 -0.31241431 0 0 Z " fill="#42208E" transform="translate(88,115)"/>
<path d="M0 0 C-0.98742187 0.45890625 -1.97484375 0.9178125 -2.9921875 1.390625 C-4.28676699 2.00977171 -5.58102107 2.62959914 -6.875 3.25 C-7.52597656 3.55035156 -8.17695312 3.85070312 -8.84765625 4.16015625 C-11.70274088 5.54354777 -13.69799576 6.53311777 -15.4453125 9.234375 C-15.62835938 9.81703125 -15.81140625 10.3996875 -16 11 C-16 9.68 -16 8.36 -16 7 C-16.99 6.67 -17.98 6.34 -19 6 C-18.41992188 5.74605469 -17.83984375 5.49210937 -17.2421875 5.23046875 C-16.46101563 4.88628906 -15.67984375 4.54210937 -14.875 4.1875 C-14.05386719 3.8265625 -13.23273438 3.465625 -12.38671875 3.09375 C-10.44810269 2.20534984 -8.5582475 1.21111655 -6.6875 0.1875 C-3.69240968 -1.135912 -2.9870227 -0.93623099 0 0 Z " fill="#EAD9E3" transform="translate(119,100)"/>
<path d="M0 0 C2 2 2 2 2.125 5.125 C2.08375 6.07375 2.0425 7.0225 2 8 C1.67 8 1.34 8 1 8 C0.67 6.35 0.34 4.7 0 3 C-4.455 3.495 -4.455 3.495 -9 4 C-9.33 5.32 -9.66 6.64 -10 8 C-10.21917317 5.29686424 -10.32851983 3.56041618 -8.9375 1.1875 C-5.94449731 -0.646921 -3.42183337 -0.31107576 0 0 Z " fill="#F9AB63" transform="translate(158,64)"/>
<path d="M0 0 C-0.54723683 3.37462715 -1.0549 5.08235 -3 8 C-3 7.34 -3 6.68 -3 6 C-5.31 5.34 -7.62 4.68 -10 4 C-7.02096266 1.02096266 -4.19714671 0 0 0 Z " fill="#503486" transform="translate(94,111)"/>
<path d="M0 0 C1.98 0 3.96 0 6 0 C5.25 6.75 5.25 6.75 3 9 C2.67 8.34 2.34 7.68 2 7 C2.66 5.68 3.32 4.36 4 3 C1.03 3 -1.94 3 -5 3 C-5 2.67 -5 2.34 -5 2 C-3.35 2 -1.7 2 0 2 C0 1.34 0 0.68 0 0 Z " fill="#49298B" transform="translate(103,53)"/>
<path d="M0 0 C0.99 0.66 1.98 1.32 3 2 C1.04480616 3.17192047 -0.9142539 4.3373929 -2.875 5.5 C-3.96554688 6.1496875 -5.05609375 6.799375 -6.1796875 7.46875 C-9 9 -9 9 -11 9 C-11 8.34 -11 7.68 -11 7 C-9.21601386 5.71993203 -7.37146094 4.52339649 -5.5 3.375 C-3.96859375 2.42753906 -3.96859375 2.42753906 -2.40625 1.4609375 C-1.6121875 0.97882813 -0.818125 0.49671875 0 0 Z " fill="#F2B17D" transform="translate(129,88)"/>
<path d="M0 0 C-0.375 2.9375 -0.375 2.9375 -1 6 C-1.99 6.495 -1.99 6.495 -3 7 C-3 6.01 -3 5.02 -3 4 C-3.99 4.99 -4.98 5.98 -6 7 C-6.66 6.67 -7.32 6.34 -8 6 C-7.75 4.125 -7.75 4.125 -7 2 C-4.41847698 0.27898465 -3.15081975 0 0 0 Z " fill="#49278D" transform="translate(132,102)"/>
<path d="M0 0 C0.33 0 0.66 0 1 0 C1.45164525 7.11341265 0.32797915 11.71546794 -3 18 C-4.63129887 13.93714243 -3.29968777 10.79897816 -2.0625 6.75 C-1.68222656 5.48671875 -1.30195312 4.2234375 -0.91015625 2.921875 C-0.60980469 1.95765625 -0.30945313 0.9934375 0 0 Z " fill="#856FC1" transform="translate(103,111)"/>
<path d="M0 0 C-1.15173355 2.46800047 -2.04783565 4.04783565 -4 6 C-4.66 6 -5.32 6 -6 6 C-7.6446674 8.46326712 -7.6446674 8.46326712 -9 11 C-9.33 10.01 -9.66 9.02 -10 8 C-8.671875 5.95703125 -8.671875 5.95703125 -6.75 3.8125 C-6.12609375 3.09707031 -5.5021875 2.38164063 -4.859375 1.64453125 C-3 0 -3 0 0 0 Z " fill="#4A238F" transform="translate(93,54)"/>
<path d="M0 0 C-1.3125 1.5 -1.3125 1.5 -3 3 C-3.99 3 -4.98 3 -6 3 C-6 2.34 -6 1.68 -6 1 C-7.65 1.33 -9.3 1.66 -11 2 C-10 0 -10 0 -7.75 -1.25 C-4.39922952 -2.16384649 -3.03002196 -1.55829701 0 0 Z " fill="#7461ED" transform="translate(131,84)"/>
<path d="M0 0 C0.91384641 2.46738531 1.03486045 3.84893806 0.4375 6.4375 C-1.5004966 9.89218959 -3.8547472 11.60687287 -7 14 C-7.66 13.34 -8.32 12.68 -9 12 C-7.88625 11.319375 -6.7725 10.63875 -5.625 9.9375 C-1.58846116 7.09969087 -0.84231907 4.77314141 0 0 Z " fill="#E8D3E7" transform="translate(140,72)"/>
<path d="M0 0 C2.97 0 5.94 0 9 0 C8.01 0.495 8.01 0.495 7 1 C6.67 1.66 6.34 2.32 6 3 C5.34 3 4.68 3 4 3 C3.01 3.66 2.02 4.32 1 5 C0.67 3.35 0.34 1.7 0 0 Z " fill="#411F8B" transform="translate(68,119)"/>
<path d="M0 0 C0.66 0 1.32 0 2 0 C1.91266027 2.08410658 1.80447722 4.16734669 1.6875 6.25 C1.62949219 7.41015625 1.57148437 8.5703125 1.51171875 9.765625 C0.98288197 13.10819638 0.26227667 14.5497057 -2 17 C-1.03644647 5.47835991 -1.03644647 5.47835991 0 0 Z " fill="#8268DB" transform="translate(77,77)"/>
<path d="M0 0 C0.82810826 3.31243305 1.09278428 5.65976579 1 9 C3.475 9.99 3.475 9.99 6 11 C6 11.33 6 11.66 6 12 C3.36 12 0.72 12 -2 12 C-1.34 8.04 -0.68 4.08 0 0 Z " fill="#7059BE" transform="translate(63,126)"/>
<path d="M0 0 C-5.1468192 3.16727335 -9.158256 3.35050464 -15 3 C-5.21459227 -2.08583691 -5.21459227 -2.08583691 0 0 Z " fill="#603E93" transform="translate(83,116)"/>
<path d="M0 0 C3.63 0 7.26 0 11 0 C8.61692525 2.38307475 7.24595503 2.43195787 4 3 C3.01 3.495 3.01 3.495 2 4 C1.34 3.67 0.68 3.34 0 3 C0 2.01 0 1.02 0 0 Z " fill="#694BC5" transform="translate(126,64)"/>
<path d="M0 0 C2.00720923 0.28674418 4.0085944 0.61866701 6 1 C3.25 5.875 3.25 5.875 1 7 C0.34 6.34 -0.32 5.68 -1 5 C-0.01 5 0.98 5 2 5 C1.01 3.68 0.02 2.36 -1 1 C-0.67 0.67 -0.34 0.34 0 0 Z " fill="#533A99" transform="translate(47,128)"/>
<path d="M0 0 C0 0.66 0 1.32 0 2 C-0.66 2.66 -1.32 3.32 -2 4 C-2.99 4 -3.98 4 -5 4 C-5 3.34 -5 2.68 -5 2 C-7.64 2 -10.28 2 -13 2 C-13 1.67 -13 1.34 -13 1 C-11.58366664 0.83052421 -10.16691467 0.66454493 -8.75 0.5 C-7.56664062 0.36078125 -7.56664062 0.36078125 -6.359375 0.21875 C-4 0 -4 0 0 0 Z " fill="#E3DAFB" transform="translate(47,119)"/>
<path d="M0 0 C0.33 0 0.66 0 1 0 C1.3125 2.1875 1.3125 2.1875 1 5 C-1.5 7.8125 -1.5 7.8125 -4 10 C-3.52371389 5.8086822 -2.89509268 3.13635041 0 0 Z " fill="#9885D8" transform="translate(39,90)"/>
<path d="M0 0 C1.32 0.66 2.64 1.32 4 2 C-1.625 5 -1.625 5 -5 5 C-5 4.01 -5 3.02 -5 2 C-2.525 2.495 -2.525 2.495 0 3 C0 2.01 0 1.02 0 0 Z " fill="#6952C2" transform="translate(81,133)"/>
<path d="M0 0 C0.33 0 0.66 0 1 0 C1 2.64 1 5.28 1 8 C1.99 8.33 2.98 8.66 4 9 C2.02 9.33 0.04 9.66 -2 10 C-1.34 6.7 -0.68 3.4 0 0 Z " fill="#9F90EF" transform="translate(69,104)"/>
<path d="M0 0 C0.33 0 0.66 0 1 0 C1.042721 1.66611905 1.04063832 3.33382885 1 5 C0 6 0 6 -2.5625 6.0625 C-3.7690625 6.0315625 -3.7690625 6.0315625 -5 6 C-5 5.34 -5 4.68 -5 4 C-3.35 3.34 -1.7 2.68 0 2 C0 1.34 0 0.68 0 0 Z " fill="#E66B27" transform="translate(157,68)"/>
<path d="M0 0 C0.99 0 1.98 0 3 0 C2.34 2.97 1.68 5.94 1 9 C0.67 9 0.34 9 0 9 C0 7.35 0 5.7 0 4 C-0.66 3.67 -1.32 3.34 -2 3 C-1.34 3 -0.68 3 0 3 C0 2.01 0 1.02 0 0 Z " fill="#634AC0" transform="translate(61,88)"/>
<path d="M0 0 C0.99 0.33 1.98 0.66 3 1 C1.35 2.98 -0.3 4.96 -2 7 C-2.6875 5.1875 -2.6875 5.1875 -3 3 C-1.5625 1.25 -1.5625 1.25 0 0 Z " fill="#6649C8" transform="translate(120,68)"/>
<path d="M0 0 C0 0.66 0 1.32 0 2 C0.66 2.33 1.32 2.66 2 3 C-0.64 3 -3.28 3 -6 3 C-4.46624489 -0.06751022 -3.38927784 0 0 0 Z " fill="#6B55DD" transform="translate(111,135)"/>
<path d="M0 0 C1.32 0.33 2.64 0.66 4 1 C3.01 1 2.02 1 1 1 C1.33 1.99 1.66 2.98 2 4 C0.0625 6.6875 0.0625 6.6875 -2 9 C-1.125 2.25 -1.125 2.25 0 0 Z " fill="#7A62A7" transform="translate(28,124)"/>
<path d="M0 0 C0.98120464 3.05263664 0.98120464 4.94736336 0 8 C0.66 8.33 1.32 8.66 2 9 C0.68 9.33 -0.64 9.66 -2 10 C-1.54177532 6.53058454 -1.10868317 3.32604951 0 0 Z " fill="#B7ACEB" transform="translate(109,89)"/>
<path d="M0 0 C0.66 0 1.32 0 2 0 C2 1.65 2 3.3 2 5 C1.34 5 0.68 5 0 5 C-0.33 5.99 -0.66 6.98 -1 8 C-1.04241723 5.66705225 -1.04092937 3.33297433 -1 1 C-0.67 0.67 -0.34 0.34 0 0 Z " fill="#664BDA" transform="translate(98,80)"/>
</svg>
