<?xml version="1.0" encoding="UTF-8"?>
<svg version="1.1" xmlns="http://www.w3.org/2000/svg" width="190" height="199">
<path d="M0 0 C62.7 0 125.4 0 190 0 C190 65.67 190 131.34 190 199 C127.3 199 64.6 199 0 199 C0 133.33 0 67.66 0 0 Z " fill="#FDFDFD" transform="translate(0,0)"/>
<path d="M0 0 C62.7 0 125.4 0 190 0 C190 1.32 190 2.64 190 4 C127.63 4 65.26 4 1 4 C1 24.46 1 44.92 1 66 C0.67 66 0.34 66 0 66 C0 44.22 0 22.44 0 0 Z " fill="#D2D8DB" transform="translate(0,0)"/>
<path d="M0 0 C2.64 1.65 5.28 3.3 8 5 C7.67 7.31 7.34 9.62 7 12 C7.99 12 8.98 12 10 12 C10.14567407 15.56206722 10.23419196 19.12336551 10.3125 22.6875 C10.35439453 23.69490234 10.39628906 24.70230469 10.43945312 25.74023438 C10.56324118 33.24179071 10.56324118 33.24179071 7.6640625 37.14453125 C4.5523008 39.31181396 2.79472738 40 -1 40 C-6.32697303 38.05360601 -6.32697303 38.05360601 -8.15966797 35.18457031 C-9.11263856 32.70717901 -9.22926553 30.88271124 -9.1953125 28.234375 C-9.18886719 27.34492187 -9.18242188 26.45546875 -9.17578125 25.5390625 C-9.15902344 24.61867188 -9.14226562 23.69828125 -9.125 22.75 C-9.11597656 21.81414062 -9.10695313 20.87828125 -9.09765625 19.9140625 C-9.07413636 17.60911343 -9.04126853 15.3046884 -9 13 C-8.01 12.67 -7.02 12.34 -6 12 C-6.37125 10.63875 -6.37125 10.63875 -6.75 9.25 C-7 6 -7 6 -5.25 3.625 C-3 2 -3 2 0 2 C0 1.34 0 0.68 0 0 Z " fill="#D9D9D9" transform="translate(96,61)"/>
<path d="M0 0 C2.64 1.65 5.28 3.3 8 5 C7.67 7.31 7.34 9.62 7 12 C7.99 12.33 8.98 12.66 10 13 C7.36 13 4.72 13 2 13 C2 13.66 2 14.32 2 15 C2.66 15 3.32 15 4 15 C4 15.99 4 16.98 4 18 C3.01 18 2.02 18 1 18 C0.67 18.66 0.34 19.32 0 20 C0.99 20.33 1.98 20.66 3 21 C3 21.99 3 22.98 3 24 C-0.63 24.66 -4.26 25.32 -8 26 C-8 28.31 -8 30.62 -8 33 C-8.33 33 -8.66 33 -9 33 C-9 26.4 -9 19.8 -9 13 C-8.01 12.67 -7.02 12.34 -6 12 C-6.37125 10.63875 -6.37125 10.63875 -6.75 9.25 C-7 6 -7 6 -5.25 3.625 C-3 2 -3 2 0 2 C0 1.34 0 0.68 0 0 Z " fill="#BBBBBB" transform="translate(96,61)"/>
<path d="M0 0 C6.27 0 12.54 0 19 0 C19.66 1.32 20.32 2.64 21 4 C14.4 4 7.8 4 1 4 C1 24.46 1 44.92 1 66 C0.67 66 0.34 66 0 66 C0 44.22 0 22.44 0 0 Z " fill="#3B532E" transform="translate(0,0)"/>
<path d="M0 0 C2.31 0 4.62 0 7 0 C7 2.97 7 5.94 7 9 C6.67 8.34 6.34 7.68 6 7 C5.01 7 4.02 7 3 7 C3.33 9.31 3.66 11.62 4 14 C3.195625 14.45375 2.39125 14.9075 1.5625 15.375 C-1.08856572 16.74725665 -1.08856572 16.74725665 -2 19 C-2.66 19 -3.32 19 -4 19 C-4 17.68 -4 16.36 -4 15 C-4.66 15 -5.32 15 -6 15 C-5.67 16.98 -5.34 18.96 -5 21 C-6.65 20.67 -8.3 20.34 -10 20 C-10 17.69 -10 15.38 -10 13 C-6.17679443 11.57741188 -3.08718695 10.75957724 1 11 C0.67 10.01 0.34 9.02 0 8 C-0.66 7.67 -1.32 7.34 -2 7 C-2 5.02 -2 3.04 -2 1 C-1.67 2.32 -1.34 3.64 -1 5 C-0.01 5 0.98 5 2 5 C2 4.01 2 3.02 2 2 C1.34 2 0.68 2 0 2 C0 1.34 0 0.68 0 0 Z " fill="#C8C8C8" transform="translate(98,74)"/>
<path d="M0 0 C2.64 1.65 5.28 3.3 8 5 C7.67 6.65 7.34 8.3 7 10 C3.37 9.67 -0.26 9.34 -4 9 C-4 9.66 -4 10.32 -4 11 C-0.7 11 2.6 11 6 11 C6 11.33 6 11.66 6 12 C2.37 12 -1.26 12 -5 12 C-5.66 10.02 -6.32 8.04 -7 6 C-5.1875 4 -5.1875 4 -3 2 C-2.01 2 -1.02 2 0 2 C0 1.34 0 0.68 0 0 Z " fill="#7B7B7B" transform="translate(96,61)"/>
<path d="M0 0 C1.32 0 2.64 0 4 0 C4 4.62 4 9.24 4 14 C7.465 13.505 7.465 13.505 11 13 C10.67 13.99 10.34 14.98 10 16 C6.7 16 3.4 16 0 16 C0 10.72 0 5.44 0 0 Z " fill="#999999" transform="translate(65,128)"/>
<path d="M0 0 C0.66 0 1.32 0 2 0 C2.33 1.98 2.66 3.96 3 6 C4.98 4.02 6.96 2.04 9 0 C9.66 0.33 10.32 0.66 11 1 C9.35 2.98 7.7 4.96 6 7 C8.31 9.31 10.62 11.62 13 14 C12.01 14.33 11.02 14.66 10 15 C7.95703125 13.56640625 7.95703125 13.56640625 5.8125 11.5625 C5.09707031 10.90378906 4.38164062 10.24507812 3.64453125 9.56640625 C3.10183594 9.04949219 2.55914062 8.53257812 2 8 C2 10.31 2 12.62 2 15 C1.34 15 0.68 15 0 15 C0 10.05 0 5.1 0 0 Z " fill="#515151" transform="translate(129,128)"/>
<path d="M0 0 C0.33 0 0.66 0 1 0 C1.33 2.31 1.66 4.62 2 7 C5.37817425 7.84454356 7.67465243 8.10844919 11 7 C11.33 8.32 11.66 9.64 12 11 C8.37 11.66 4.74 12.32 1 13 C1 15.31 1 17.62 1 20 C0.67 20 0.34 20 0 20 C0 13.4 0 6.8 0 0 Z " fill="#979797" transform="translate(87,74)"/>
<path d="M0 0 C0.33 0 0.66 0 1 0 C1 6.93 1 13.86 1 21 C0.34 19.68 -0.32 18.36 -1 17 C-4.05908413 16.18415432 -4.05908413 16.18415432 -7 16 C-5.68 15.34 -4.36 14.68 -3 14 C-3 13.34 -3 12.68 -3 12 C-3.66 11.67 -4.32 11.34 -5 11 C-4.67 9.68 -4.34 8.36 -4 7 C-3.01 7 -2.02 7 -1 7 C-0.67 4.69 -0.34 2.38 0 0 Z " fill="#9C9C9C" transform="translate(105,74)"/>
<path d="M0 0 C0.66 0 1.32 0 2 0 C2 1.32 2 2.64 2 4 C2.66 4 3.32 4 4 4 C4.33 3.01 4.66 2.02 5 1 C6.5 2.375 6.5 2.375 8 4 C8 4.66 8 5.32 8 6 C6.35 6 4.7 6 3 6 C3 6.66 3 7.32 3 8 C4.32 8.33 5.64 8.66 7 9 C5.02 9 3.04 9 1 9 C1.66 9.66 2.32 10.32 3 11 C-0.26954202 10.43628586 -1.82575883 9.50037734 -4 7 C-3.67 6.34 -3.34 5.68 -3 5 C-2.01 5 -1.02 5 0 5 C0 3.35 0 1.7 0 0 Z " fill="#A7A7A7" transform="translate(92,89)"/>
<path d="M0 0 C2.97 0 5.94 0 9 0 C9 0.66 9 1.32 9 2 C6.69 1.67 4.38 1.34 2 1 C2 2.98 2 4.96 2 7 C3.98 7 5.96 7 8 7 C8 7.33 8 7.66 8 8 C6.02 8 4.04 8 2 8 C2 9.98 2 11.96 2 14 C4.64 13.67 7.28 13.34 10 13 C10 13.66 10 14.32 10 15 C6.7 15 3.4 15 0 15 C0 10.05 0 5.1 0 0 Z " fill="#616161" transform="translate(92,128)"/>
<path d="M0 0 C2.64 0 5.28 0 8 0 C8.33 0.66 8.66 1.32 9 2 C6.69 1.67 4.38 1.34 2 1 C2 2.98 2 4.96 2 7 C3.65 7 5.3 7 7 7 C7 7.33 7 7.66 7 8 C5.35 8 3.7 8 2 8 C2 9.98 2 11.96 2 14 C4.64 13.67 7.28 13.34 10 13 C9.67 13.66 9.34 14.32 9 15 C6.03 15 3.06 15 0 15 C0 10.05 0 5.1 0 0 Z " fill="#555555" transform="translate(52,128)"/>
<path d="M0 0 C4.62 0 9.24 0 14 0 C14.33 1.32 14.66 2.64 15 4 C10.71 4 6.42 4 2 4 C1.34 2.68 0.68 1.36 0 0 Z " fill="#ADB4AB" transform="translate(19,0)"/>
<path d="M0 0 C0.99 0 1.98 0 3 0 C3 4.95 3 9.9 3 15 C2.01 15 1.02 15 0 15 C0 10.05 0 5.1 0 0 Z " fill="#8B8B8B" transform="translate(120,128)"/>
<path d="M0 0 C1.98 0 3.96 0 6 0 C6 0.66 6 1.32 6 2 C11.28 2 16.56 2 22 2 C19.18902666 4.81097334 16.64248232 5.18370413 12.8125 5.3125 C7.67382831 5.28722784 4.39675916 3.55811442 0 1 C0 0.67 0 0.34 0 0 Z " fill="#C4C4C4" transform="translate(84,100)"/>
<path d="M0 0 C1.65 0 3.3 0 5 0 C5 1.98 5 3.96 5 6 C5.66 6.33 6.32 6.66 7 7 C6.01 7.33 5.02 7.66 4 8 C3.34 7.67 2.68 7.34 2 7 C1.34 7.99 0.68 8.98 0 10 C0 6.7 0 3.4 0 0 Z " fill="#F0F0F0" transform="translate(88,75)"/>
<path d="M0 0 C2.97 0 5.94 0 9 0 C7.02 0.99 7.02 0.99 5 2 C5 3.98 5 5.96 5 8 C3.35 7.67 1.7 7.34 0 7 C0 4.69 0 2.38 0 0 Z " fill="#F2F2F2" transform="translate(88,87)"/>
<path d="M0 0 C2.31 0 4.62 0 7 0 C7 2.97 7 5.94 7 9 C6.67 8.34 6.34 7.68 6 7 C5.01 7 4.02 7 3 7 C2.67 5.35 2.34 3.7 2 2 C1.34 2 0.68 2 0 2 C0 1.34 0 0.68 0 0 Z " fill="#F0F0F0" transform="translate(98,74)"/>
<path d="M0 0 C1.65 0 3.3 0 5 0 C4.67 1.32 4.34 2.64 4 4 C3.01 4 2.02 4 1 4 C1 10.27 1 16.54 1 23 C0.67 23 0.34 23 0 23 C0 15.41 0 7.82 0 0 Z " fill="#466050" transform="translate(0,0)"/>
<path d="M0 0 C-1.39750048 3.15835107 -3.05198234 5.32272825 -5.5 7.75 C-6.41265625 8.67039062 -6.41265625 8.67039062 -7.34375 9.609375 C-9 11 -9 11 -11 11 C-9.7672897 6.34309441 -5.30909278 0 0 0 Z " fill="#CFCFCF" transform="translate(82,55)"/>
<path d="M0 0 C2.4375 0.75 2.4375 0.75 5 2 C5.9375 4 5.9375 4 6 6 C5.34 6.66 4.68 7.32 4 8 C0.375 7.625 0.375 7.625 -3 7 C-2.67 6.01 -2.34 5.02 -2 4 C-2 4.66 -2 5.32 -2 6 C-1.01 5.67 -0.02 5.34 1 5 C1.66 5.33 2.32 5.66 3 6 C2.67 5.01 2.34 4.02 2 3 C1.34 2.67 0.68 2.34 0 2 C-0.33 2.66 -0.66 3.32 -1 4 C-0.67 2.68 -0.34 1.36 0 0 Z " fill="#7A7A7A" transform="translate(98,63)"/>
<path d="M0 0 C0.66 0.33 1.32 0.66 2 1 C2 1.99 2 2.98 2 4 C2.99 4.33 3.98 4.66 5 5 C5 5.99 5 6.98 5 8 C3.35 8 1.7 8 0 8 C0 7.34 0 6.68 0 6 C-0.66 6 -1.32 6 -2 6 C-2 6.66 -2 7.32 -2 8 C-2.66 8 -3.32 8 -4 8 C-3.67 6.68 -3.34 5.36 -3 4 C-2.01 4 -1.02 4 0 4 C0 2.68 0 1.36 0 0 Z " fill="#B5B5B5" transform="translate(96,61)"/>
<path d="M0 0 C-2.50123121 1.66748747 -4.77676357 2.89954361 -7.5 4.125 C-8.2734375 4.47820313 -9.046875 4.83140625 -9.84375 5.1953125 C-12 6 -12 6 -15 6 C-9.81255162 1.50421141 -7.09392194 -0.15764271 0 0 Z " fill="#C0C0C0" transform="translate(96,58)"/>
<path d="M0 0 C0.33 1.32 0.66 2.64 1 4 C2.32 3.67 3.64 3.34 5 3 C5 4.98 5 6.96 5 9 C3 9 3 9 1.375 7.875 C-0.55651159 5.24112056 -0.21205536 3.18083044 0 0 Z " fill="#D9D9D9" transform="translate(96,75)"/>
<path d="M0 0 C3.02419525 0.58803797 6.01758453 1.22678118 9 2 C9 2.66 9 3.32 9 4 C6.69 4 4.38 4 2 4 C1.34 2.68 0.68 1.36 0 0 Z " fill="#818A7D" transform="translate(19,0)"/>
<path d="M0 0 C4.41889613 1.35021826 6.34345343 3.26115668 9 7 C8.67 7.66 8.34 8.32 8 9 C7.4225 8.2575 6.845 7.515 6.25 6.75 C4.27746474 4.33912357 2.23955718 2.15957299 0 0 Z " fill="#B7B7B7" transform="translate(113,56)"/>
</svg>
