<?xml version="1.0" encoding="UTF-8"?>
<svg version="1.1" xmlns="http://www.w3.org/2000/svg" width="195" height="183">
<path d="M0 0 C64.35 0 128.7 0 195 0 C195 60.39 195 120.78 195 183 C130.65 183 66.3 183 0 183 C0 122.61 0 62.22 0 0 Z " fill="#FEFDFE" transform="translate(0,0)"/>
<path d="M0 0 C2.31 0 4.62 0 7 0 C7.99 3.96 8.98 7.92 10 12 C10.66 12 11.32 12 12 12 C12.1546875 10.9790625 12.1546875 10.9790625 12.3125 9.9375 C13.14725019 6.37084011 14.49472754 3.33777806 16 0 C17.65 0 19.3 0 21 0 C21 6.6 21 13.2 21 20 C19.68 20 18.36 20 17 20 C16.67 16.37 16.34 12.74 16 9 C14.68 11.97 13.36 14.94 12 18 C10.68 17.67 9.36 17.34 8 17 C6.55036313 14.44149911 5.89599095 11.8223715 5 9 C4.67 12.63 4.34 16.26 4 20 C2.68 20 1.36 20 0 20 C0 13.4 0 6.8 0 0 Z " fill="#898A85" transform="translate(58,87)"/>
<path d="M0 0 C10 0 10 0 13 2 C13.34064274 5.13391319 13.48962698 7.19105108 11.83203125 9.9296875 C10.71180075 12.01611489 10.71180075 12.01611489 11.8984375 14.140625 C12.38570312 14.83671875 12.87296875 15.5328125 13.375 16.25 C14.09816406 17.30960938 14.09816406 17.30960938 14.8359375 18.390625 C15.22007813 18.92171875 15.60421875 19.4528125 16 20 C13.8125 20.4375 13.8125 20.4375 11 20 C9.47721739 18.31282609 8.31032522 16.55899343 7.11328125 14.62890625 C6.083831 12.83937637 6.083831 12.83937637 4 12 C4 14.64 4 17.28 4 20 C2.68 20 1.36 20 0 20 C0 13.4 0 6.8 0 0 Z " fill="#636461" transform="translate(101,87)"/>
<path d="M0 0 C3.19782408 -0.66621335 5.82232876 -0.83236381 9 0 C12.192564 2.98811408 14.60882798 6.35134515 17 10 C16.59007813 10.54269531 16.18015625 11.08539063 15.7578125 11.64453125 C15.21898438 12.35996094 14.68015625 13.07539062 14.125 13.8125 C13.59132813 14.52019531 13.05765625 15.22789063 12.5078125 15.95703125 C11.29185219 17.60456297 10.13583859 19.29624211 9 21 C6.6171875 21.29296875 6.6171875 21.29296875 3.875 21.1875 C2.96492188 21.16042969 2.05484375 21.13335937 1.1171875 21.10546875 C0.41851563 21.07066406 -0.28015625 21.03585938 -1 21 C-0.57847656 20.46890625 -0.15695313 19.9378125 0.27734375 19.390625 C0.82519531 18.68421875 1.37304688 17.9778125 1.9375 17.25 C2.48277344 16.55390625 3.02804688 15.8578125 3.58984375 15.140625 C5.02416552 12.9633166 5.83408813 11.60274251 6 9 C4.81627402 7.06866044 4.81627402 7.06866044 3.0625 5.375 C0 2.17995444 0 2.17995444 0 0 Z " fill="#3D375C" transform="translate(25,87)"/>
<path d="M0 0 C5.28 0 10.56 0 16 0 C16 0.99 16 1.98 16 3 C14.02 3.33 12.04 3.66 10 4 C10.680625 4.5775 11.36125 5.155 12.0625 5.75 C14 8 14 8 14 10 C12.7407491 12.51850179 11.07803895 14.1230616 9 16 C11.31 16.33 13.62 16.66 16 17 C16 17.99 16 18.98 16 20 C10.72 20 5.44 20 0 20 C0 19.34 0 18.68 0 18 C1.75 16.2734375 1.75 16.2734375 4 14.375 C4.7425 13.74335937 5.485 13.11171875 6.25 12.4609375 C6.8275 11.97882813 7.405 11.49671875 8 11 C6.63629701 8.00779732 5.05091917 5.70973471 2.875 3.25 C1.92625 2.1775 0.9775 1.105 0 0 Z " fill="#914880" transform="translate(39,87)"/>
<path d="M0 0 C2.25 -0.3125 2.25 -0.3125 5 0 C7.3125 2.5 7.3125 2.5 9 5 C9.598125 4.175 10.19625 3.35 10.8125 2.5 C11.534375 1.675 12.25625 0.85 13 0 C13.99 0 14.98 0 16 0 C14.92598892 2.91517292 14.22189824 4.77810176 12 7 C12.24295979 12.22363541 14.31257865 15.66544943 17 20 C14.1875 20.3125 14.1875 20.3125 11 20 C9.25 17.5625 9.25 17.5625 8 15 C7.34 14.67 6.68 14.34 6 14 C5.7525 14.804375 5.505 15.60875 5.25 16.4375 C4 19 4 19 1.875 19.8125 C1.25625 19.874375 0.6375 19.93625 0 20 C1.12451727 17.0280615 2.22293791 14.66559313 4 12 C3.68374779 7.99413869 2.0906221 5.36317468 0 2 C0 1.34 0 0.68 0 0 Z " fill="#767673" transform="translate(138,87)"/>
<path d="M0 0 C4.29 0 8.58 0 13 0 C13 0.99 13 1.98 13 3 C10.03 3 7.06 3 4 3 C4 4.65 4 6.3 4 8 C6.31 8 8.62 8 11 8 C11 8.99 11 9.98 11 11 C8.69 11 6.38 11 4 11 C4 12.98 4 14.96 4 17 C7.3 17 10.6 17 14 17 C14 17.99 14 18.98 14 20 C9.38 20 4.76 20 0 20 C0 13.4 0 6.8 0 0 Z " fill="#6F706C" transform="translate(84,87)"/>
<path d="M0 0 C4.29 0 8.58 0 13 0 C13 0.99 13 1.98 13 3 C10.03 3 7.06 3 4 3 C4 4.65 4 6.3 4 8 C6.31 8 8.62 8 11 8 C11 8.99 11 9.98 11 11 C8.69 11 6.38 11 4 11 C4 12.98 4 14.96 4 17 C6.97 17 9.94 17 13 17 C13 17.99 13 18.98 13 20 C8.71 20 4.42 20 0 20 C0 13.4 0 6.8 0 0 Z " fill="#71726F" transform="translate(158,87)"/>
<path d="M0 0 C6.27 0 12.54 0 19 0 C19 0.99 19 1.98 19 3 C16.36 3 13.72 3 11 3 C11 8.61 11 14.22 11 20 C9.68 20 8.36 20 7 20 C7 14.39 7 8.78 7 3 C4.69 3 2.38 3 0 3 C0 2.01 0 1.02 0 0 Z " fill="#787875" transform="translate(118,87)"/>
<path d="M0 0 C2.31 0 4.62 0 7 0 C7.01417969 0.556875 7.02835937 1.11375 7.04296875 1.6875 C7.43550953 7.96815254 9.28345924 11.96689867 13 17 C10.8125 17.4375 10.8125 17.4375 8 17 C6.47721739 15.31282609 5.31032522 13.55899343 4.11328125 11.62890625 C3.083831 9.83937637 3.083831 9.83937637 1 9 C1 11.64 1 14.28 1 17 C0.67 17 0.34 17 0 17 C0 14.03 0 11.06 0 8 C0.99 7.67 1.98 7.34 3 7 C2.01 6.67 1.02 6.34 0 6 C0 4.02 0 2.04 0 0 Z " fill="#787774" transform="translate(104,90)"/>
<path d="M0 0 C3.1352987 -0.5118855 5.8793173 -0.66166374 9 0 C11.88055516 2.2856579 14.05403234 4.88394889 16 8 C16 8.66 16 9.32 16 10 C11.545 10.495 11.545 10.495 7 11 C6.401875 10.071875 5.80375 9.14375 5.1875 8.1875 C3.22220454 5.11550825 3.22220454 5.11550825 1.25 3.25 C0.8375 2.8375 0.425 2.425 0 2 C0 1.34 0 0.68 0 0 Z " fill="#A94381" transform="translate(25,87)"/>
<path d="M0 0 C1.1055189 0.93590504 2.20935453 1.87379858 3.3125 2.8125 C3.92738281 3.33457031 4.54226562 3.85664062 5.17578125 4.39453125 C6.85424679 5.87172469 8.43882034 7.40039131 10 9 C8.4114658 13.28904235 5.56872632 15.32345526 2 18 C1.34 18 0.68 18 0 18 C-0.99 18.66 -1.98 19.32 -3 20 C-1.34832443 16.4213696 0.78286492 13.25179812 3 10 C1.35 7.69 -0.3 5.38 -2 3 C-1.34 2.01 -0.68 1.02 0 0 Z " fill="#EED7EA" transform="translate(38,87)"/>
<path d="M0 0 C1.65 0 3.3 0 5 0 C5 6.6 5 13.2 5 20 C4.01 20 3.02 20 2 20 C2 15.38 2 10.76 2 6 C1.01 6 0.02 6 -1 6 C-1.042721 4.33388095 -1.04063832 2.66617115 -1 1 C-0.67 0.67 -0.34 0.34 0 0 Z " fill="#70706D" transform="translate(74,87)"/>
<path d="M0 0 C1.65 0 3.3 0 5 0 C5 1.98 5 3.96 5 6 C4.34 6 3.68 6 3 6 C3 10.29 3 14.58 3 19 C2.01 19 1.02 19 0 19 C0 12.73 0 6.46 0 0 Z " fill="#6C6C67" transform="translate(59,88)"/>
<path d="M0 0 C0.66 0 1.32 0 2 0 C2.33 1.98 2.66 3.96 3 6 C5.97 6 8.94 6 12 6 C12 6.99 12 7.98 12 9 C8.04 9 4.08 9 0 9 C0 6.03 0 3.06 0 0 Z " fill="#6A6A67" transform="translate(159,98)"/>
<path d="M0 0 C1.485 0.99 1.485 0.99 3 2 C3.22107787 4.7885289 3.28107535 7.34653181 3.1875 10.125 C3.17396484 10.87910156 3.16042969 11.63320312 3.14648438 12.41015625 C3.11109985 14.27374127 3.05729167 16.13695978 3 18 C2.01 18 1.02 18 0 18 C0 12.06 0 6.12 0 0 Z " fill="#63625E" transform="translate(125,89)"/>
<path d="M0 0 C2.97 0 5.94 0 9 0 C9.66 1.98 10.32 3.96 11 6 C3.54062751 5.38857603 3.54062751 5.38857603 1 3.5625 C0 2 0 2 0 0 Z " fill="#83295E" transform="translate(25,87)"/>
<path d="M0 0 C1.15518918 0.90484792 2.29885406 1.8244206 3.4375 2.75 C4.07558594 3.26046875 4.71367188 3.7709375 5.37109375 4.296875 C7.18810554 6.19667629 7.60423197 7.43586908 8 10 C7.01 10.33 6.02 10.66 5 11 C5 10.34 5 9.68 5 9 C4.401875 8.773125 3.80375 8.54625 3.1875 8.3125 C0.43648112 6.66188867 -0.52484637 4.8027919 -2 2 C-1.34 1.34 -0.68 0.68 0 0 Z " fill="#FAE4F1" transform="translate(38,87)"/>
<path d="M0 0 C1.60379341 -0.05416188 3.20811406 -0.09286638 4.8125 -0.125 C5.70582031 -0.14820312 6.59914063 -0.17140625 7.51953125 -0.1953125 C10 0 10 0 13 2 C13.1875 5.125 13.1875 5.125 13 8 C12.01 8.495 12.01 8.495 11 9 C10.67 7.02 10.34 5.04 10 3 C9.0925 3.061875 8.185 3.12375 7.25 3.1875 C3.63570458 2.97898296 2.69946657 2.23586253 0 0 Z " fill="#737370" transform="translate(101,87)"/>
<path d="M0 0 C1.65 0 3.3 0 5 0 C5.33 1.65 5.66 3.3 6 5 C4.02 5.33 2.04 5.66 0 6 C0 4.02 0 2.04 0 0 Z " fill="#E3E3E0" transform="translate(104,90)"/>
<path d="M0 0 C3.63 0 7.26 0 11 0 C11 0.99 11 1.98 11 3 C9.54257537 3.08096803 8.08387193 3.13917774 6.625 3.1875 C5.81289063 3.22230469 5.00078125 3.25710937 4.1640625 3.29296875 C3.44992188 3.19628906 2.73578125 3.09960938 2 3 C1.34 2.01 0.68 1.02 0 0 Z " fill="#74686E" transform="translate(44,87)"/>
<path d="M0 0 C0.66 0 1.32 0 2 0 C1.38722388 2.96175123 0.74627478 4.38058783 -1 7 C-3.625 7.1875 -3.625 7.1875 -6 7 C-5.04882866 5.8274869 -4.08882991 4.66212985 -3.125 3.5 C-2.59132813 2.8503125 -2.05765625 2.200625 -1.5078125 1.53125 C-0.76144531 0.77328125 -0.76144531 0.77328125 0 0 Z " fill="#504B67" transform="translate(33,97)"/>
<path d="M0 0 C0.66 0.33 1.32 0.66 2 1 C2 1.66 2 2.32 2 3 C2.99 2.67 3.98 2.34 5 2 C4.67 3.65 4.34 5.3 4 7 C2.68 6.67 1.36 6.34 0 6 C-0.38218767 4.34385343 -0.71395102 2.67542976 -1 1 C-0.67 0.67 -0.34 0.34 0 0 Z " fill="#656661" transform="translate(66,98)"/>
<path d="M0 0 C1.98 0 3.96 0 6 0 C5.24172908 1.17487036 4.46792245 2.33972592 3.6875 3.5 C3.25824219 4.1496875 2.82898437 4.799375 2.38671875 5.46875 C1.92910156 5.9740625 1.47148438 6.479375 1 7 C0.01 7 -0.98 7 -2 7 C-1.67 6.030625 -1.34 5.06125 -1 4.0625 C0.05173363 1.37850426 0.05173363 1.37850426 0 0 Z " fill="#564368" transform="translate(36,97)"/>
<path d="M0 0 C1.32 0 2.64 0 4 0 C6.25 3 6.25 3 8 6 C2.33846154 4.52307692 2.33846154 4.52307692 0.625 1.875 C0.41875 1.25625 0.2125 0.6375 0 0 Z " fill="#903668" transform="translate(25,87)"/>
<path d="M0 0 C2.31 0 4.62 0 7 0 C7 0.99 7 1.98 7 3 C4.36 3 1.72 3 -1 3 C-0.67 2.01 -0.34 1.02 0 0 Z " fill="#7A7A78" transform="translate(88,95)"/>
<path d="M0 0 C1.65 0 3.3 0 5 0 C5.66 1.32 6.32 2.64 7 4 C5.68 4 4.36 4 3 4 C1.25 2 1.25 2 0 0 Z " fill="#BC2073" transform="translate(39,87)"/>
<path d="M0 0 C0.33 0.99 0.66 1.98 1 3 C0.67 3.33 0.34 3.66 0 4 C0.99 4.66 1.98 5.32 3 6 C0.36 6 -2.28 6 -5 6 C-3.35 4.02 -1.7 2.04 0 0 Z " fill="#E4D2E4" transform="translate(52,98)"/>
<path d="M0 0 C0.66 0 1.32 0 2 0 C1.67 1.65 1.34 3.3 1 5 C-0.65 5 -2.3 5 -4 5 C-2.71937515 3.2925002 -1.38232443 1.62626404 0 0 Z " fill="#B91A6D" transform="translate(44,101)"/>
<path d="M0 0 C2.64 0.33 5.28 0.66 8 1 C8.33 1.99 8.66 2.98 9 4 C5.65626525 3.44271087 2.96687001 2.64826111 0 1 C0 0.67 0 0.34 0 0 Z " fill="#AC2877" transform="translate(29,92)"/>
</svg>
