<?xml version="1.0" encoding="UTF-8"?>
<svg version="1.1" xmlns="http://www.w3.org/2000/svg" width="192" height="202">
<path d="M0 0 C63.36 0 126.72 0 192 0 C192 66.66 192 133.32 192 202 C128.64 202 65.28 202 0 202 C0 135.34 0 68.68 0 0 Z " fill="#FDFDFD" transform="translate(0,0)"/>
<path d="M0 0 C6.47409683 5.37361744 10.19186821 10.97837953 11.21875 19.49609375 C11.41547215 28.89246916 9.49040602 35.24213365 3.28515625 42.35546875 C2.07859375 43.37640625 2.07859375 43.37640625 0.84765625 44.41796875 C0.22890625 44.95421875 -0.38984375 45.49046875 -1.02734375 46.04296875 C-8.56556027 50.92063826 -15.25421588 51.18486761 -24.15234375 50.41796875 C-29.49843662 49.20166191 -33.96675574 45.83477529 -38.15234375 42.41796875 C-38.15234375 41.42796875 -38.15234375 40.43796875 -38.15234375 39.41796875 C-39.14234375 39.41796875 -40.13234375 39.41796875 -41.15234375 39.41796875 C-45.4179903 31.32466615 -46.42114843 23.47528216 -45.15234375 14.41796875 C-42.54127412 7.25182144 -37.42316435 1.66035823 -31.15234375 -2.58203125 C-21.7122213 -6.92448758 -8.43262669 -6.19821018 0 0 Z " fill="#D05461" transform="translate(67.15234375,74.58203125)"/>
<path d="M0 0 C1.32 0.33 2.64 0.66 4 1 C4 1.99 4 2.98 4 4 C5.216875 4.391875 6.43375 4.78375 7.6875 5.1875 C11.74652429 6.68179567 14.06309254 8.80395365 17 12 C17.66 12 18.32 12 19 12 C19.33 11.01 19.66 10.02 20 9 C21.7470166 6.62227134 22.60638706 6.06129545 25.55859375 5.6015625 C26.98365234 5.61316406 26.98365234 5.61316406 28.4375 5.625 C29.38496094 5.61726563 30.33242187 5.60953125 31.30859375 5.6015625 C34.40886532 6.06052868 35.76541714 6.8315893 38 9 C39.61317651 13.83952954 40.10128849 19.14002121 38.234375 23.98828125 C37.125 25.625 37.125 25.625 34 28 C28.86553614 28.91242492 24.55350313 28.60801103 20 26 C20 25.01 20 24.02 20 23 C17.69 23.33 15.38 23.66 13 24 C12.67 24.99 12.34 25.98 12 27 C8.46838955 28.76580523 4.84564219 28.64511587 1 28 C-2.02850164 26.50777465 -4.10489172 24.80120692 -6 22 C-7.13047843 17.46925442 -6.20654851 13.06469462 -4 9 C-2.5625 7.1875 -2.5625 7.1875 -1 6 C-0.01 6 0.98 6 2 6 C2 5.34 2 4.68 2 4 C1.34 4 0.68 4 0 4 C0 2.68 0 1.36 0 0 Z " fill="#F5F5F5" transform="translate(113,80)"/>
<path d="M0 0 C1.90252248 1.79394179 2.36824918 2.88915842 2.57421875 5.484375 C0.76171875 7.734375 0.76171875 7.734375 -1.42578125 9.484375 C-2.08578125 9.484375 -2.74578125 9.484375 -3.42578125 9.484375 C-3.75578125 10.474375 -4.08578125 11.464375 -4.42578125 12.484375 C-6.11680647 14.05055944 -7.87784513 15.54218025 -9.67578125 16.984375 C-10.6296875 17.7578125 -11.58359375 18.53125 -12.56640625 19.328125 C-19.09189143 24.24898268 -19.09189143 24.24898268 -23.61328125 25.046875 C-28.92727713 24.26284282 -33.38541824 22.05258831 -37.42578125 18.484375 C-38.3623631 15.59069052 -38.57521847 14.05223644 -37.80078125 11.109375 C-34.50539019 4.81817388 -30.77410478 -0.76440402 -23.66015625 -3.09375 C-15.26295337 -4.67923586 -7.39021953 -4.42593554 0 0 Z " fill="#FCF9F9" transform="translate(64.42578125,76.515625)"/>
<path d="M0 0 C4.95392169 3.21335461 6.57275885 6.47068814 8 12 C9.07544266 17.95147877 8.88365607 23.03532154 8 29 C-0.30879875 31.71307714 -6.93496074 31.06614648 -15.25 28.6875 C-16.05179688 28.47416016 -16.85359375 28.26082031 -17.6796875 28.04101562 C-18.45054688 27.82509766 -19.22140625 27.60917969 -20.015625 27.38671875 C-20.70946289 27.19295654 -21.40330078 26.99919434 -22.11816406 26.79956055 C-24.2715709 25.88461408 -25.46044515 24.73936046 -27 23 C-25.081875 22.5359375 -25.081875 22.5359375 -23.125 22.0625 C-17.80035638 20.29876404 -14.43578844 17.1920147 -10.44140625 13.34765625 C-7.56666403 10.58330413 -4.51038253 8.0962548 -1.3984375 5.60546875 C0.43787627 3.85215202 0.43787627 3.85215202 0 0 Z " fill="#EE97A0" transform="translate(66,78)"/>
<path d="M0 0 C2.03916697 0.7544135 3.73507124 1.68446626 5.59765625 2.79980469 C10.68310877 5.40857579 15.42993941 5.20394436 21.03515625 5.00292969 C22.00066406 4.98488281 22.96617188 4.96683594 23.9609375 4.94824219 C26.32007658 4.90152656 28.677067 4.83605105 31.03515625 4.75292969 C29.51568126 8.1204148 28.51414783 9.36133305 25.03515625 10.75292969 C25.03515625 11.41292969 25.03515625 12.07292969 25.03515625 12.75292969 C17.2374075 16.46930356 10.54780836 18.54399109 2.1015625 15.79980469 C-2.9688401 13.67198633 -7.20652991 11.74416425 -9.96484375 6.75292969 C-9.96484375 5.76292969 -9.96484375 4.77292969 -9.96484375 3.75292969 C-9.20171875 3.46417969 -8.43859375 3.17542969 -7.65234375 2.87792969 C-0.59773472 -0.07516247 -0.59773472 -0.07516247 0 0 Z " fill="#FBF4F4" transform="translate(39.96484375,105.2470703125)"/>
<path d="M0 0 C4.29928572 2.94161655 5.66993607 5.00473728 7 10 C8.05805619 18.7762977 7.02003895 25.66196493 2 33 C-0.5625 35.9375 -0.5625 35.9375 -3 38 C-3.61875 38.53625 -4.2375 39.0725 -4.875 39.625 C-12.41321652 44.50266951 -19.10187213 44.76689886 -28 44 C-30.85698666 43.34999774 -32.40391821 42.53645657 -35 41 C-35.63808594 40.63648438 -36.27617188 40.27296875 -36.93359375 39.8984375 C-40.42254359 37.72223136 -41.78336871 36.76543054 -42.9375 32.6875 C-42.958125 31.800625 -42.97875 30.91375 -43 30 C-42.05125 30.9075 -41.1025 31.815 -40.125 32.75 C-33.73034213 38.17966926 -26.71396422 40.66947579 -18.328125 40.33984375 C-14.84262103 39.83105374 -12.15577644 38.54568642 -9 37 C-8.01 37 -7.02 37 -6 37 C-6 36.34 -6 35.68 -6 35 C-4.47165147 33.76431395 -2.94234618 32.52972509 -1.40234375 31.30859375 C0.34023014 29.68251505 0.82474344 28.36596356 1 26 C1.66 26 2.32 26 3 26 C3.33 23.69 3.66 21.38 4 19 C3.34 18.67 2.68 18.34 2 18 C2.19464844 17.45472656 2.38929687 16.90945312 2.58984375 16.34765625 C3.11766088 13.32653152 2.45656195 11.35810236 1.5625 8.4375 C0.64763512 5.41393311 0 3.17025502 0 0 Z " fill="#CB4958" transform="translate(71,81)"/>
<path d="M0 0 C3.87288813 1.39423973 6.99011301 2.97254167 10.3125 5.375 C20.15820426 11.68930156 33.53281686 14.01181028 45 13 C44.67 13.99 44.34 14.98 44 16 C40.68798092 16.14723105 37.37681941 16.23469907 34.0625 16.3125 C33.13630859 16.35439453 32.21011719 16.39628906 31.25585938 16.43945312 C25.02381622 16.54878722 21.20650114 15.57140625 16.06811523 11.98510742 C13.31292794 10.67272627 11.85646195 11.06355651 9 12 C8.34 12.66 7.68 13.32 7 14 C5.68 14 4.36 14 3 14 C3.33 15.65 3.66 17.3 4 19 C2.33333333 19 0.66666667 19 -1 19 C-1.33 17.68 -1.66 16.36 -2 15 C-1.34 14.67 -0.68 14.34 0 14 C-0.33 12.783125 -0.66 11.56625 -1 10.3125 C-1.80322213 7.12789396 -2.20641973 4.3027157 -2 1 C-1.34 0.67 -0.68 0.34 0 0 Z " fill="#DA6571" transform="translate(27,95)"/>
<path d="M0 0 C1.9375 1 1.9375 1 3 3 C3.90954198 7.00532247 4.31215887 10.0635234 3 14 C-0.08247769 16.53851104 -1.59000129 17.01413789 -5.625 16.875 C-9.01932353 15.9949902 -9.99626173 15.72580611 -12 13 C-12.29296875 10.51953125 -12.29296875 10.51953125 -12.1875 7.8125 C-12.16042969 6.91144531 -12.13335937 6.01039062 -12.10546875 5.08203125 C-12.07066406 4.39496094 -12.03585938 3.70789063 -12 3 C-11.34 3 -10.68 3 -10 3 C-10 2.34 -10 1.68 -10 1 C-6.80768705 -0.59615648 -3.47282715 -0.37005535 0 0 Z " fill="#F2F2F2" transform="translate(122,89)"/>
<path d="M0 0 C1.32 0.33 2.64 0.66 4 1 C4 1.99 4 2.98 4 4 C5.85625 4.5878125 5.85625 4.5878125 7.75 5.1875 C11.74227555 6.71645659 13.92731177 8.11370956 16 12 C16.82522425 18.3954879 15.64822466 21.74226447 12 27 C8.46838955 28.76580523 4.84564219 28.64511587 1 28 C-2.02850164 26.50777465 -4.10489172 24.80120692 -6 22 C-7.13047843 17.46925442 -6.20654851 13.06469462 -4 9 C-2.5625 7.1875 -2.5625 7.1875 -1 6 C-0.01 6 0.98 6 2 6 C2 5.34 2 4.68 2 4 C1.34 4 0.68 4 0 4 C0 2.68 0 1.36 0 0 Z M-1 10 C-1 10.66 -1 11.32 -1 12 C-1.66 12 -2.32 12 -3 12 C-3.71950078 18.78039468 -3.71950078 18.78039468 -0.9375 24.6875 C2.86394817 26.38601939 5.00912836 26.03467042 9 25 C12.09495747 23.39856908 12.09495747 23.39856908 12.546875 21.16015625 C12.61390625 20.46792969 12.6809375 19.77570313 12.75 19.0625 C12.82734375 18.37285156 12.9046875 17.68320313 12.984375 16.97265625 C13.00494011 14.37631167 12.31407528 12.49882544 10.9375 10.3125 C7.50188191 7.98514581 2.69394263 8.15302868 -1 10 Z " fill="#6B6B6B" transform="translate(113,80)"/>
<path d="M0 0 C0.94746094 -0.00773437 1.89492187 -0.01546875 2.87109375 -0.0234375 C5.97136532 0.43552868 7.32791714 1.2065893 9.5625 3.375 C11.17567651 8.21452954 11.66378849 13.51502121 9.796875 18.36328125 C8.6875 20 8.6875 20 5.5625 22.375 C0.58767059 23.25905692 -4.10446765 23.16803631 -8.4375 20.375 C-10.29165258 16.29586433 -10.64927017 12.8221735 -10.4375 8.375 C-9.4475 8.045 -8.4575 7.715 -7.4375 7.375 C-7.40011719 8.00148438 -7.36273438 8.62796875 -7.32421875 9.2734375 C-7.25847656 10.09070313 -7.19273437 10.90796875 -7.125 11.75 C-7.06699219 12.56210938 -7.00898438 13.37421875 -6.94921875 14.2109375 C-6.60759472 16.75421338 -6.60759472 16.75421338 -3.4375 18.375 C-1.48370501 18.65285432 -1.48370501 18.65285432 0.5625 18.5625 C1.243125 18.55605469 1.92375 18.54960938 2.625 18.54296875 C4.78008209 18.43197746 4.78008209 18.43197746 7.5625 17.375 C7.281672 15.39426635 6.98753386 13.41541552 6.6875 11.4375 C6.52507812 10.33535156 6.36265625 9.23320313 6.1953125 8.09765625 C5.98648438 7.19917969 5.77765625 6.30070312 5.5625 5.375 C3.0882021 4.13785105 1.84750667 4.41918638 -0.875 4.75 C-2.04869141 4.88535156 -2.04869141 4.88535156 -3.24609375 5.0234375 C-5.60696986 5.34151128 -5.60696986 5.34151128 -8.4375 6.375 C-8.4375 3.375 -8.4375 3.375 -7.27734375 1.7109375 C-4.77637306 -0.10505395 -3.06665544 -0.02496599 0 0 Z " fill="#646464" transform="translate(141.4375,85.625)"/>
<path d="M0 0 C1.32 0 2.64 0 4 0 C4 2.64 4 5.28 4 8 C4.94875 7.236875 5.8975 6.47375 6.875 5.6875 C7.40867188 5.25824219 7.94234375 4.82898438 8.4921875 4.38671875 C10.25292107 2.87729455 10.25292107 2.87729455 12 0 C13.32 0 14.64 0 16 0 C14.82585685 2.88198773 13.67796428 4.30670069 11.375 6.5 C8.54083369 8.90861986 8.54083369 8.90861986 9 13 C10.61736259 14.3927289 12.2925002 15.71937515 14 17 C15.37368345 18.63356951 16.71937515 20.2925002 18 22 C15.8125 22.3125 15.8125 22.3125 13 22 C9.95424358 19.43879574 8.26493447 17.79480342 7 14 C6.01 14 5.02 14 4 14 C4 16.64 4 19.28 4 22 C2.68 22 1.36 22 0 22 C0 14.74 0 7.48 0 0 Z " fill="#868686" transform="translate(155,86)"/>
<path d="M0 0 C3.45167403 2.47812494 5.23163306 3.79606135 6 8 C3.44186981 10.10952469 0.87774417 12.21163424 -1.6875 14.3125 C-2.7693457 15.20485352 -2.7693457 15.20485352 -3.87304688 16.11523438 C-10.19982639 21.28643772 -14.69486826 24.60451754 -23 25 C-25.24609375 24.01171875 -25.24609375 24.01171875 -27 23 C-25.081875 22.5359375 -25.081875 22.5359375 -23.125 22.0625 C-17.80035638 20.29876404 -14.43578844 17.1920147 -10.44140625 13.34765625 C-7.56666403 10.58330413 -4.51038253 8.0962548 -1.3984375 5.60546875 C0.43787627 3.85215202 0.43787627 3.85215202 0 0 Z " fill="#D9B1B3" transform="translate(66,78)"/>
<path d="M0 0 C0.99 0 1.98 0 3 0 C3 3.3 3 6.6 3 10 C6.96 10 10.92 10 15 10 C15 6.7 15 3.4 15 0 C15.99 0 16.98 0 18 0 C18 7.26 18 14.52 18 22 C17.01 22 16.02 22 15 22 C15 19.03 15 16.06 15 13 C11.04 13 7.08 13 3 13 C3 15.97 3 18.94 3 22 C2.01 22 1.02 22 0 22 C0 14.74 0 7.48 0 0 Z " fill="#565656" transform="translate(86,86)"/>
<path d="M0 0 C0.66 0.33 1.32 0.66 2 1 C1.95359375 1.68707031 1.9071875 2.37414062 1.859375 3.08203125 C1.82328125 3.98308594 1.7871875 4.88414063 1.75 5.8125 C1.70359375 6.70582031 1.6571875 7.59914063 1.609375 8.51953125 C1.77452101 11.12323199 1.77452101 11.12323199 3.79296875 12.83984375 C7.07694144 14.56610904 9.45966061 13.77243769 13 13 C13.99 12.67 14.98 12.34 16 12 C16.33 8.7 16.66 5.4 17 2 C17.66 2.33 18.32 2.66 19 3 C19.46444522 7.7373412 19.66529126 10.94841058 17.0625 15.0625 C13.53374921 17.29497499 11.4115116 17.79822182 7.29296875 17.54296875 C3.1684775 16.56630046 0.36282185 14.50731369 -2 11 C-2.72819903 7.97911183 -2.46834188 6.17431716 -2 3 C-1.34 2.01 -0.68 1.02 0 0 Z " fill="#565656" transform="translate(109,91)"/>
<path d="M0 0 C4.21376241 1.73507864 8.19144219 3.46096146 12 6 C12 6.33 12 6.66 12 7 C9.69 7.33 7.38 7.66 5 8 C5 8.99 5 9.98 5 11 C6.65 11 8.3 11 10 11 C9.67 11.66 9.34 12.32 9 13 C7.68 13 6.36 13 5 13 C5.33 14.65 5.66 16.3 6 18 C4.33333333 18 2.66666667 18 1 18 C0.67 16.68 0.34 15.36 0 14 C0.66 13.67 1.32 13.34 2 13 C1.67 11.783125 1.34 10.56625 1 9.3125 C0.19677787 6.12789396 -0.20641973 3.3027157 0 0 Z " fill="#F17E84" transform="translate(25,96)"/>
<path d="M0 0 C1.423125 1.36125 1.423125 1.36125 2.875 2.75 C9.3944552 8.29875161 16.50005789 10.40110915 24.96875 10.62890625 C25.6390625 10.75136719 26.309375 10.87382813 27 11 C27.99 12.485 27.99 12.485 29 14 C14.01700252 14.56108312 14.01700252 14.56108312 8 11 C7.04287109 10.45472656 7.04287109 10.45472656 6.06640625 9.8984375 C2.57745641 7.72223136 1.21663129 6.76543054 0.0625 2.6875 C0.041875 1.800625 0.02125 0.91375 0 0 Z " fill="#CA5661" transform="translate(28,111)"/>
<path d="M0 0 C0.99 0 1.98 0 3 0 C3 7.26 3 14.52 3 22 C2.01 22 1.02 22 0 22 C0 19.03 0 16.06 0 13 C-3.96 13 -7.92 13 -12 13 C-12 12.67 -12 12.34 -12 12 C-7.71 12 -3.42 12 1 12 C0.67 11.34 0.34 10.68 0 10 C-0.06996014 8.29297265 -0.08440154 6.58331997 -0.0625 4.875 C-0.05347656 3.96492188 -0.04445313 3.05484375 -0.03515625 2.1171875 C-0.02355469 1.41851562 -0.01195313 0.71984375 0 0 Z " fill="#626262" transform="translate(101,86)"/>
<path d="M0 0 C1.33332095 2.6666419 0.67102033 4.16680303 0 7 C0.99 7 1.98 7 3 7 C2.625 9.4375 2.625 9.4375 2 12 C1.01 12.495 1.01 12.495 0 13 C0.66 13.33 1.32 13.66 2 14 C2 14.66 2 15.32 2 16 C2.99 16 3.98 16 5 16 C5 16.66 5 17.32 5 18 C1.40608886 16.66511872 -1.75490696 15.03977277 -5 13 C-4.61271765 7.28758534 -4.12989477 4.26311718 0 0 Z " fill="#F9EBEC" transform="translate(31,81)"/>
<path d="M0 0 C0.94746094 -0.00773437 1.89492187 -0.01546875 2.87109375 -0.0234375 C6.03184582 0.44448225 7.42879531 0.98667661 9.5625 3.375 C9.734375 6.07421875 9.734375 6.07421875 9.3125 9.0625 C9.18359375 10.05636719 9.0546875 11.05023438 8.921875 12.07421875 C8.80328125 12.83347656 8.6846875 13.59273437 8.5625 14.375 C8.2325 14.375 7.9025 14.375 7.5625 14.375 C7.44132813 13.73691406 7.32015625 13.09882812 7.1953125 12.44140625 C7.02773437 11.61511719 6.86015625 10.78882812 6.6875 9.9375 C6.52507812 9.11378906 6.36265625 8.29007812 6.1953125 7.44140625 C5.98648438 6.75949219 5.77765625 6.07757813 5.5625 5.375 C3.0882021 4.13785105 1.84750667 4.41918638 -0.875 4.75 C-2.04869141 4.88535156 -2.04869141 4.88535156 -3.24609375 5.0234375 C-5.60696986 5.34151128 -5.60696986 5.34151128 -8.4375 6.375 C-8.4375 3.375 -8.4375 3.375 -7.27734375 1.7109375 C-4.77637306 -0.10505395 -3.06665544 -0.02496599 0 0 Z " fill="#787878" transform="translate(141.4375,85.625)"/>
<path d="M0 0 C-1.04874998 2.62187494 -1.64931313 3.79371361 -4.125 5.25 C-4.74375 5.4975 -5.3625 5.745 -6 6 C-6 6.66 -6 7.32 -6 8 C-9.465 9.485 -9.465 9.485 -13 11 C-12.67 9.68 -12.34 8.36 -12 7 C-10.35 7 -8.7 7 -7 7 C-7 5.68 -7 4.36 -7 3 C-11.29 3 -15.58 3 -20 3 C-20 2.34 -20 1.68 -20 1 C-17.79187393 0.83060951 -15.58348776 0.66460778 -13.375 0.5 C-12.14523438 0.4071875 -10.91546875 0.314375 -9.6484375 0.21875 C-6.41962143 0.02515931 -3.23321325 -0.03979339 0 0 Z " fill="#FEE1E1" transform="translate(71,110)"/>
<path d="M0 0 C0 1.98 0 3.96 0 6 C-4.873261 7.5912689 -8.80790596 8.21192221 -14 8 C-13 5 -13 5 -10.8203125 3.61328125 C-9.93085937 3.18402344 -9.04140625 2.75476563 -8.125 2.3125 C-7.24070312 1.87550781 -6.35640625 1.43851562 -5.4453125 0.98828125 C-3 0 -3 0 0 0 Z " fill="#E18D94" transform="translate(74,101)"/>
<path d="M0 0 C1.69270833 1.00911458 3.38541667 2.01822917 5.078125 3.02734375 C11.61760924 6.33696078 20.74183915 6.06145459 27.6953125 4.328125 C30.06471465 3.46298185 30.06471465 3.46298185 33 2 C33 2.66 33 3.32 33 4 C31.36368108 5.04892238 29.69514137 6.04906703 28 7 C27.67 7.33 27.34 7.66 27 8 C24.25890274 8.12770009 21.55414003 8.185221 18.8125 8.1875 C18.05646484 8.19974609 17.30042969 8.21199219 16.52148438 8.22460938 C10.84885296 8.23936904 6.12338923 7.78811725 1.625 4 C0 2 0 2 0 0 Z " fill="#FBD4D6" transform="translate(32,119)"/>
<path d="M0 0 C0.33 0 0.66 0 1 0 C1 5.94 1 11.88 1 18 C0.01 18.33 -0.98 18.66 -2 19 C-2.12375 19.556875 -2.2475 20.11375 -2.375 20.6875 C-3.33020166 24.22174615 -5.58535064 26.27578021 -8 29 C-9.32 28.67 -10.64 28.34 -12 28 C-10.625 26.5 -10.625 26.5 -9 25 C-8.34 25 -7.68 25 -7 25 C-6.7525 24.34 -6.505 23.68 -6.25 23 C-5 20 -5 20 -4.01171875 18.30859375 C-0.61267086 12.38807033 -0.22492435 6.74773063 0 0 Z " fill="#F9C5CA" transform="translate(78,92)"/>
<path d="M0 0 C0.33 0 0.66 0 1 0 C1.33 2.64 1.66 5.28 2 8 C1.34 8 0.68 8 0 8 C0.99 12.62 1.98 17.24 3 22 C2.01 22 1.02 22 0 22 C-2.09659157 17.69865935 -2.26862339 14.06612125 -2.25 9.3125 C-2.25773437 8.63638672 -2.26546875 7.96027344 -2.2734375 7.26367188 C-2.2534965 2.2534965 -2.2534965 2.2534965 0 0 Z " fill="#CB3541" transform="translate(25,88)"/>
<path d="M0 0 C0.99 0.33 1.98 0.66 3 1 C-1.06773989 5.32448087 -5.53656263 8.79990263 -10.3125 12.3125 C-11.42334961 13.13717773 -11.42334961 13.13717773 -12.55664062 13.97851562 C-14.36839676 15.32272179 -16.182859 16.66308744 -18 18 C-18.66 17.67 -19.32 17.34 -20 17 C-17.60556157 14.91505907 -15.20919922 12.83234146 -12.8125 10.75 C-12.13896484 10.16347656 -11.46542969 9.57695313 -10.77148438 8.97265625 C-9.45370548 7.82843847 -8.13233459 6.68834233 -6.80712891 5.55273438 C-5.25825692 4.22190138 -3.72690371 2.87072631 -2.19921875 1.515625 C-1.11060547 0.76539062 -1.11060547 0.76539062 0 0 Z " fill="#FBDBDD" transform="translate(68,83)"/>
<path d="M0 0 C0.33 0.66 0.66 1.32 1 2 C0.05689819 4.38020932 -0.93360715 6.67785482 -2 9 C-2.67276716 10.6642135 -3.34206835 12.32986582 -4 14 C-4.99 14 -5.98 14 -7 14 C-7.33 18.62 -7.66 23.24 -8 28 C-8.33 28 -8.66 28 -9 28 C-9.72281572 17.9608928 -9.65318323 11.09389687 -3 3 C-2.01934582 1.9810214 -1.02584227 0.97347195 0 0 Z " fill="#D0616B" transform="translate(31,76)"/>
<path d="M0 0 C1.89492188 0.01353516 1.89492188 0.01353516 3.828125 0.02734375 C4.79234375 0.03894531 5.7565625 0.05054687 6.75 0.0625 C7.08 0.7225 7.41 1.3825 7.75 2.0625 C6.56921875 2.08828125 5.3884375 2.1140625 4.171875 2.140625 C2.61454677 2.19691397 1.05725653 2.25426114 -0.5 2.3125 C-1.27730469 2.32667969 -2.05460937 2.34085937 -2.85546875 2.35546875 C-7.65189329 2.52417992 -7.65189329 2.52417992 -11.625 5.0625 C-12.16125 5.7225 -12.6975 6.3825 -13.25 7.0625 C-16 7.8125 -16 7.8125 -18.25 8.0625 C-16.89905419 4.00966257 -14.87004582 3.19193872 -11.25 1.0625 C-7.54971115 -0.23715403 -3.88798375 -0.03599985 0 0 Z " fill="#F9CBCC" transform="translate(50.25,72.9375)"/>
<path d="M0 0 C0.33 1.32 0.66 2.64 1 4 C-0.03447266 4.65355469 -0.03447266 4.65355469 -1.08984375 5.3203125 C-2.02957031 5.91585937 -2.96929687 6.51140625 -3.9375 7.125 C-4.93910156 7.75921875 -5.94070312 8.3934375 -6.97265625 9.046875 C-10.35199771 11.2270953 -13.65236804 13.50567613 -16.9296875 15.8359375 C-19.2763247 17.15536748 -21.35102741 17.6031156 -24 18 C-20.96632632 15.70883386 -17.89543106 13.47433698 -14.8125 11.25 C-9.7900299 7.6046588 -4.86909596 3.84718693 0 0 Z " fill="#F8CFD1" transform="translate(71,86)"/>
<path d="M0 0 C0.33 0.66 0.66 1.32 1 2 C2.32 1.34 3.64 0.68 5 0 C4.67 0.99 4.34 1.98 4 3 C3.93197033 4.72795352 3.91504355 6.45835365 3.9375 8.1875 C3.95103516 9.53908203 3.95103516 9.53908203 3.96484375 10.91796875 C3.97644531 11.60503906 3.98804688 12.29210937 4 13 C3.34 12.67 2.68 12.34 2 12 C2 9.03 2 6.06 2 3 C1.01 3.495 1.01 3.495 0 4 C0 6.97 0 9.94 0 13 C-1.65 13.33 -3.3 13.66 -5 14 C-4.34 10.37 -3.68 6.74 -3 3 C-2.01 2.67 -1.02 2.34 0 2 C0 1.34 0 0.68 0 0 Z " fill="#BABABA" transform="translate(132,90)"/>
<path d="M0 0 C4.4609303 1.40200667 6.84677303 3.59783406 10 7 C10.598125 7.598125 11.19625 8.19625 11.8125 8.8125 C12.204375 9.204375 12.59625 9.59625 13 10 C12.67 10.66 12.34 11.32 12 12 C11.01 11.34 10.02 10.68 9 10 C8.01 9.67 7.02 9.34 6 9 C5.5875 8.54625 5.175 8.0925 4.75 7.625 C2.16038514 5.22035763 -0.72315134 4.298374 -4 3 C-2.68 2.67 -1.36 2.34 0 2 C0 1.34 0 0.68 0 0 Z " fill="#D15862" transform="translate(62,72)"/>
<path d="M0 0 C0.66 0.33 1.32 0.66 2 1 C2.46444522 5.7373412 2.66529126 8.94841058 0.0625 13.0625 C-4.05158942 15.66529126 -7.2626588 15.46444522 -12 15 C-12 14.67 -12 14.34 -12 14 C-11.071875 13.896875 -10.14375 13.79375 -9.1875 13.6875 C-5.88080243 12.97429072 -5.12526242 12.44405178 -3 10 C-2.34 10 -1.68 10 -1 10 C-0.67 6.7 -0.34 3.4 0 0 Z " fill="#666666" transform="translate(126,93)"/>
<path d="M0 0 C1.32 0.33 2.64 0.66 4 1 C4 1.99 4 2.98 4 4 C5.98 4.66 7.96 5.32 10 6 C10 6.33 10 6.66 10 7 C6.7 7.33 3.4 7.66 0 8 C0.33 8.66 0.66 9.32 1 10 C0.34 10 -0.32 10 -1 10 C-1.33 10.66 -1.66 11.32 -2 12 C-2.99 12 -3.98 12 -5 12 C-3.84826645 9.53199953 -2.95216435 7.95216435 -1 6 C-0.01 6 0.98 6 2 6 C2 5.34 2 4.68 2 4 C1.34 4 0.68 4 0 4 C0 2.68 0 1.36 0 0 Z " fill="#7D7D7D" transform="translate(113,80)"/>
<path d="M0 0 C0 3 0 3 -1.29760742 4.39453125 C-1.89420166 4.86246094 -2.4907959 5.33039063 -3.10546875 5.8125 C-3.75966797 6.33070312 -4.41386719 6.84890625 -5.08789062 7.3828125 C-6.12719727 8.18332031 -6.12719727 8.18332031 -7.1875 9 C-7.86103516 9.53367187 -8.53457031 10.06734375 -9.22851562 10.6171875 C-16.28661036 16.15348815 -16.28661036 16.15348815 -20 18 C-20.66 17.67 -21.32 17.34 -22 17 C-7.40318907 5.47835991 -7.40318907 5.47835991 0 0 Z " fill="#D49FA3" transform="translate(71,84)"/>
<path d="M0 0 C0.66 0 1.32 0 2 0 C2 2.97 2 5.94 2 9 C2.99 9 3.98 9 5 9 C5 9.66 5 10.32 5 11 C4.01 11 3.02 11 2 11 C2 13.97 2 16.94 2 20 C1.34 20 0.68 20 0 20 C0 13.4 0 6.8 0 0 Z " fill="#4B4B4B" transform="translate(156,87)"/>
<path d="M0 0 C-1.54550519 4.63651556 -5.28038726 5.88154753 -9.375 8.25 C-10.15617187 8.72179687 -10.93734375 9.19359375 -11.7421875 9.6796875 C-12.495 10.12054688 -13.2478125 10.56140625 -14.0234375 11.015625 C-15.05863525 11.62325684 -15.05863525 11.62325684 -16.11474609 12.24316406 C-18 13 -18 13 -21 12 C-20.53102295 11.70754395 -20.0620459 11.41508789 -19.57885742 11.11376953 C-17.44810835 9.7846545 -15.31779997 8.45483472 -13.1875 7.125 C-12.44951172 6.66480469 -11.71152344 6.20460938 -10.95117188 5.73046875 C-10.23896484 5.28574219 -9.52675781 4.84101562 -8.79296875 4.3828125 C-7.81106567 3.77010498 -7.81106567 3.77010498 -6.80932617 3.14501953 C-1.83965885 0 -1.83965885 0 0 0 Z " fill="#F6C5C8" transform="translate(74,91)"/>
<path d="M0 0 C0.33 0 0.66 0 1 0 C1 7.26 1 14.52 1 22 C0.67 22 0.34 22 0 22 C-0.33 20.35 -0.66 18.7 -1 17 C-1.66 17.33 -2.32 17.66 -3 18 C-3 13.71 -3 9.42 -3 5 C-2.34 5 -1.68 5 -1 5 C-0.67 3.35 -0.34 1.7 0 0 Z " fill="#D0D0D0" transform="translate(154,86)"/>
<path d="M0 0 C2.22889496 -0.05428973 4.45817471 -0.09292338 6.6875 -0.125 C8.54955078 -0.15980469 8.54955078 -0.15980469 10.44921875 -0.1953125 C13.81237857 -0.01032021 15.9985587 0.54232105 19 2 C19 2.66 19 3.32 19 4 C18.113125 3.855625 17.22625 3.71125 16.3125 3.5625 C10.57406419 2.73256094 4.78045724 2.40854359 -1 2 C-0.67 1.34 -0.34 0.68 0 0 Z " fill="#C1404A" transform="translate(43,70)"/>
<path d="M0 0 C0.66 0.33 1.32 0.66 2 1 C2.625 3.0625 2.625 3.0625 3 5 C2.67 4.34 2.34 3.68 2 3 C1.39671875 3.27714844 0.7934375 3.55429688 0.171875 3.83984375 C-0.62734375 4.20207031 -1.4265625 4.56429687 -2.25 4.9375 C-3.43335937 5.47697266 -3.43335937 5.47697266 -4.640625 6.02734375 C-6.75823698 6.90033279 -8.76669362 7.51338508 -11 8 C-11 8.66 -11 9.32 -11 10 C-12.32 10 -13.64 10 -15 10 C-13.7819075 6.34572251 -12.36175201 5.86868864 -9.03320312 4.19921875 C-8.05770508 3.72935547 -8.05770508 3.72935547 -7.0625 3.25 C-6.41603516 2.92128906 -5.76957031 2.59257813 -5.10351562 2.25390625 C-3.43499444 1.43264037 -1.71939715 0.70860004 0 0 Z " fill="#D38D94" transform="translate(72,98)"/>
<path d="M0 0 C0.66 1.32 1.32 2.64 2 4 C-1.37655821 6.77709679 -4.81412986 9.27474011 -8.5 11.625 C-9.4178125 12.21539062 -10.335625 12.80578125 -11.28125 13.4140625 C-13.80626751 14.88698938 -16.2595619 15.99715852 -19 17 C-15.53092419 13.338554 -12.04844095 10.48164242 -7.8125 7.6875 C-6.76707031 6.99011719 -5.72164062 6.29273437 -4.64453125 5.57421875 C-2 4 -2 4 0 4 C0 2.68 0 1.36 0 0 Z " fill="#D39CA1" transform="translate(72,86)"/>
<path d="M0 0 C4.63720719 3.27530896 8.68542782 6.30435607 12 11 C9.8125 11.3125 9.8125 11.3125 7 11 C3.50330013 8.08608344 1.16376573 4.98588425 -1 1 C-0.67 0.67 -0.34 0.34 0 0 Z " fill="#676767" transform="translate(161,97)"/>
<path d="M0 0 C2.46141432 0.83324142 4.6568457 1.85233259 7 3 C3.18483536 4.30062431 -0.27561763 3.89369853 -4.25 3.5625 C-5.51328125 3.46066406 -6.7765625 3.35882813 -8.078125 3.25390625 C-9.52445313 3.12822266 -9.52445313 3.12822266 -11 3 C-7.16599763 -0.15741372 -5.01455334 -0.50995458 0 0 Z " fill="#F6C5CB" transform="translate(54,67)"/>
<path d="M0 0 C0.598125 0.474375 1.19625 0.94875 1.8125 1.4375 C4.00382924 3.16465744 4.00382924 3.16465744 7 4 C7.66 4.33 8.32 4.66 9 5 C7.35 5.33 5.7 5.66 4 6 C4.33 7.65 4.66 9.3 5 11 C3.33333333 11 1.66666667 11 0 11 C-0.33 9.68 -0.66 8.36 -1 7 C-0.34 6.67 0.32 6.34 1 6 C0.67 4.02 0.34 2.04 0 0 Z " fill="#E8727A" transform="translate(26,103)"/>
<path d="M0 0 C0.66 0.66 1.32 1.32 2 2 C1.67 2.99 1.34 3.98 1 5 C1 4.34 1 3.68 1 3 C-1.81554571 4.37167611 -4.59480731 5.76225939 -7.296875 7.34765625 C-8.48023437 8.04181641 -8.48023437 8.04181641 -9.6875 8.75 C-10.43386719 9.19859375 -11.18023437 9.6471875 -11.94921875 10.109375 C-14 11 -14 11 -17 10 C-8.585 5.05 -8.585 5.05 0 0 Z " fill="#D49499" transform="translate(73,93)"/>
<path d="M0 0 C-1.3288488 2.65769761 -2.20666677 2.98178498 -5 4 C-7.62426505 4.13958857 -10.13292747 4.18931369 -12.75 4.125 C-13.44738281 4.11597656 -14.14476562 4.10695313 -14.86328125 4.09765625 C-16.57566958 4.07419888 -18.28788004 4.03833104 -20 4 C-20 3.67 -20 3.34 -20 3 C-16.7 3 -13.4 3 -10 3 C-10 2.34 -10 1.68 -10 1 C-6.61981469 -0.04005702 -3.5219721 -0.08004482 0 0 Z " fill="#C13E4C" transform="translate(65,120)"/>
<path d="M0 0 C0.33 0 0.66 0 1 0 C1.03738281 0.78503906 1.07476563 1.57007812 1.11328125 2.37890625 C1.5053499 8.64431698 2.24799705 13.37634181 5 19 C5 19.99 5 20.98 5 22 C4.34 22 3.68 22 3 22 C-1.04654428 15.08715353 -0.26901851 7.74175497 0 0 Z " fill="#FBCDCE" transform="translate(21,92)"/>
<path d="M0 0 C-1.36983503 3.16115776 -1.9890638 3.9927092 -5 6 C-5 4.68 -5 3.36 -5 2 C-8.96 2 -12.92 2 -17 2 C-17 1.67 -17 1.34 -17 1 C-5.47835991 -0.14806378 -5.47835991 -0.14806378 0 0 Z " fill="#F8C4C3" transform="translate(71,110)"/>
<path d="M0 0 C0 0.33 0 0.66 0 1 C-1.0725 1.28875 -2.145 1.5775 -3.25 1.875 C-7.13029068 2.92236103 -7.13029068 2.92236103 -11 5 C-10.67 7.97 -10.34 10.94 -10 14 C-10.66 13.67 -11.32 13.34 -12 13 C-12 9.7 -12 6.4 -12 3 C-11.34 3 -10.68 3 -10 3 C-10 2.34 -10 1.68 -10 1 C-6.78548731 -0.60725635 -3.56387464 -0.05748185 0 0 Z " fill="#CACACA" transform="translate(122,89)"/>
<path d="M0 0 C0.8971875 0.309375 0.8971875 0.309375 1.8125 0.625 C1.8125 0.955 1.8125 1.285 1.8125 1.625 C0.905 1.91375 -0.0025 2.2025 -0.9375 2.5 C-3.50952908 3.39031776 -5.80096766 4.33994413 -8.1875 5.625 C-8.1875 6.285 -8.1875 6.945 -8.1875 7.625 C-7.5275 7.625 -6.8675 7.625 -6.1875 7.625 C-6.5175 8.615 -6.8475 9.605 -7.1875 10.625 C-10.1875 7 -10.1875 7 -10.1875 3.625 C-9.424375 3.33625 -8.66125 3.0475 -7.875 2.75 C-0.92623874 -0.15878378 -0.92623874 -0.15878378 0 0 Z " fill="#FBD1D4" transform="translate(40.1875,105.375)"/>
<path d="M0 0 C8.415 1.98 8.415 1.98 17 4 C17 4.33 17 4.66 17 5 C5.47835991 5.55353075 5.47835991 5.55353075 0 2 C0 1.34 0 0.68 0 0 Z " fill="#C84851" transform="translate(42,105)"/>
<path d="M0 0 C0.66 0.33 1.32 0.66 2 1 C2.05416188 2.60379341 2.09286638 4.20811406 2.125 5.8125 C2.14820313 6.70582031 2.17140625 7.59914063 2.1953125 8.51953125 C2 11 2 11 0 14 C-0.66 14 -1.32 14 -2 14 C-1.34 9.38 -0.68 4.76 0 0 Z " fill="#4E4E4E" transform="translate(150,91)"/>
<path d="M0 0 C1.43088528 2.86177057 0.59991697 4.93375773 0 8 C-0.66 8 -1.32 8 -2 8 C-2.66 9.65 -3.32 11.3 -4 13 C-4.95892499 10.41090253 -5.0552238 9.18407932 -4.25 6.5 C-3.04232114 4.08464227 -1.70248726 2.08941618 0 0 Z " fill="#FBCFCE" transform="translate(31,81)"/>
<path d="M0 0 C0.66 0.99 1.32 1.98 2 3 C0 5 0 5 -2.3828125 5.1953125 C-3.28773438 5.17210938 -4.19265625 5.14890625 -5.125 5.125 C-6.49011719 5.09792969 -6.49011719 5.09792969 -7.8828125 5.0703125 C-8.58148438 5.04710938 -9.28015625 5.02390625 -10 5 C-10 4.34 -10 3.68 -10 3 C-9.04287109 2.80083984 -9.04287109 2.80083984 -8.06640625 2.59765625 C-7.24011719 2.42105469 -6.41382813 2.24445313 -5.5625 2.0625 C-4.73878906 1.88847656 -3.91507813 1.71445313 -3.06640625 1.53515625 C-1.02338796 1.19247006 -1.02338796 1.19247006 0 0 Z " fill="#5D5D5D" transform="translate(147,103)"/>
<path d="M0 0 C0 0.66 0 1.32 0 2 C-1.95330868 3.03041513 -3.91281528 4.0490893 -5.875 5.0625 C-6.96554688 5.63097656 -8.05609375 6.19945313 -9.1796875 6.78515625 C-10.11039063 7.18605469 -11.04109375 7.58695312 -12 8 C-12.66 7.67 -13.32 7.34 -14 7 C-12.23462904 5.82508418 -10.46250287 4.66031316 -8.6875 3.5 C-7.70136719 2.8503125 -6.71523437 2.200625 -5.69921875 1.53125 C-3 0 -3 0 0 0 Z " fill="#F9CDCF" transform="translate(74,96)"/>
<path d="M0 0 C0 4.38968456 -2.12805101 5.76905739 -5 9 C-6.32 8.67 -7.64 8.34 -9 8 C-7.625 6.5 -7.625 6.5 -6 5 C-5.34 5 -4.68 5 -4 5 C-3.67 4.01 -3.34 3.02 -3 2 C-2.01 1.34 -1.02 0.68 0 0 Z " fill="#FBD6D7" transform="translate(75,112)"/>
<path d="M0 0 C1.17539996 0.92652701 2.34010577 1.86663387 3.5 2.8125 C4.1496875 3.33457031 4.799375 3.85664062 5.46875 4.39453125 C7 6 7 6 7 9 C2.36285097 7.53563715 2.36285097 7.53563715 0.6875 5.0625 C0 3 0 3 0 0 Z " fill="#C24851" transform="translate(28,111)"/>
<path d="M0 0 C0.33 0 0.66 0 1 0 C1.33 2.64 1.66 5.28 2 8 C0.68 8.33 -0.64 8.66 -2 9 C-2.125 5.625 -2.125 5.625 -2 2 C-1.34 1.34 -0.68 0.68 0 0 Z " fill="#C7454D" transform="translate(25,88)"/>
<path d="M0 0 C0 0.66 0 1.32 0 2 C-1.59915881 2.69906942 -3.20455045 3.38389468 -4.8125 4.0625 C-5.70582031 4.44535156 -6.59914063 4.82820313 -7.51953125 5.22265625 C-10 6 -10 6 -13 5 C-11.39967863 4.15930585 -9.79458829 3.32768495 -8.1875 2.5 C-6.84751953 1.80390625 -6.84751953 1.80390625 -5.48046875 1.09375 C-3 0 -3 0 0 0 Z " fill="#F9C3C5" transform="translate(74,101)"/>
<path d="M0 0 C0.66 0.33 1.32 0.66 2 1 C2 3.97 2 6.94 2 10 C1.01 10.33 0.02 10.66 -1 11 C-0.67 7.37 -0.34 3.74 0 0 Z " fill="#545454" transform="translate(126,93)"/>
<path d="M0 0 C0.66 0.66 1.32 1.32 2 2 C-0.97 4.31 -3.94 6.62 -7 9 C-7.66 8.67 -8.32 8.34 -9 8 C-6.03 5.36 -3.06 2.72 0 0 Z " fill="#F7CED0" transform="translate(57,92)"/>
<path d="M0 0 C0.33 0.99 0.66 1.98 1 3 C2.98 2.67 4.96 2.34 7 2 C6.01 3.485 6.01 3.485 5 5 C4.34 5 3.68 5 3 5 C2.67 5.99 2.34 6.98 2 8 C1.34 8 0.68 8 0 8 C0 5.36 0 2.72 0 0 Z " fill="#DFDFDF" transform="translate(159,86)"/>
<path d="M0 0 C4.66714289 1.83025211 8.18765077 3.6497537 12 7 C7.14036821 6.39254603 3.2594482 4.27241033 -1 2 C-0.67 1.34 -0.34 0.68 0 0 Z " fill="#C86771" transform="translate(27,95)"/>
<path d="M0 0 C0.99 0.33 1.98 0.66 3 1 C3 1.66 3 2.32 3 3 C4.65 3.33 6.3 3.66 8 4 C8.33 6.31 8.66 8.62 9 11 C8.443125 10.278125 7.88625 9.55625 7.3125 8.8125 C5.01744765 5.92843935 5.01744765 5.92843935 2.25 3.25 C1.5075 2.5075 0.765 1.765 0 1 C0 0.67 0 0.34 0 0 Z " fill="#FBD2D0" transform="translate(67,74)"/>
<path d="M0 0 C1.32 0.33 2.64 0.66 4 1 C4 1.99 4 2.98 4 4 C5.32 4.66 6.64 5.32 8 6 C6.02 6 4.04 6 2 6 C2 5.34 2 4.68 2 4 C1.34 4 0.68 4 0 4 C0 2.68 0 1.36 0 0 Z " fill="#A9A9A9" transform="translate(113,80)"/>
<path d="M0 0 C0.99 0.33 1.98 0.66 3 1 C2.42415568 3.38564077 1.77772405 5.66682784 1 8 C0.01 8 -0.98 8 -2 8 C-2 6.68 -2 5.36 -2 4 C-1.34 4 -0.68 4 0 4 C0 2.68 0 1.36 0 0 Z " fill="#D63D4E" transform="translate(74,103)"/>
<path d="M0 0 C-1 3 -1 3 -3.375 4.75 C-6 6 -6 6 -9 5 C-7.87926138 4.16094435 -6.75325453 3.32892169 -5.625 2.5 C-4.99851562 2.0359375 -4.37203125 1.571875 -3.7265625 1.09375 C-2 0 -2 0 0 0 Z " fill="#FCD7DB" transform="translate(74,91)"/>
<path d="M0 0 C0 1.32 0 2.64 0 4 C-1.98 4 -3.96 4 -6 4 C-5.67 3.01 -5.34 2.02 -5 1 C-3 0 -3 0 0 0 Z " fill="#FCFBFB" transform="translate(64,113)"/>
<path d="M0 0 C-0.66 0 -1.32 0 -2 0 C-2.33 1.32 -2.66 2.64 -3 4 C-4.32 3.67 -5.64 3.34 -7 3 C-6.67 2.01 -6.34 1.02 -6 0 C-3.50907189 -1.24546405 -2.58919267 -0.7767578 0 0 Z " fill="#E35C65" transform="translate(36,104)"/>
<path d="M0 0 C1.32 0.33 2.64 0.66 4 1 C2.02 3.31 0.04 5.62 -2 8 C-2.33 6.68 -2.66 5.36 -3 4 C-2.34 4 -1.68 4 -1 4 C-0.67 2.68 -0.34 1.36 0 0 Z " fill="#FDE2E1" transform="translate(29,74)"/>
<path d="M0 0 C0.99 0.66 1.98 1.32 3 2 C1.68 2.33 0.36 2.66 -1 3 C-1 3.66 -1 4.32 -1 5 C-2.32 5 -3.64 5 -5 5 C-4 2 -4 2 -1.9375 0.8125 C-1.298125 0.544375 -0.65875 0.27625 0 0 Z " fill="#DF8991" transform="translate(62,103)"/>
<path d="M0 0 C6.625 0.75 6.625 0.75 10 3 C10 3.66 10 4.32 10 5 C8.51800098 4.55090939 7.03944764 4.09043436 5.5625 3.625 C4.73878906 3.36976562 3.91507813 3.11453125 3.06640625 2.8515625 C1 2 1 2 0 0 Z " fill="#FCD4D6" transform="translate(34,116)"/>
<path d="M0 0 C2.64 0 5.28 0 8 0 C8.66 1.32 9.32 2.64 10 4 C6.7 3.01 3.4 2.02 0 1 C0 0.67 0 0.34 0 0 Z " fill="#525252" transform="translate(139,87)"/>
<path d="M0 0 C-3.8503105 2.56687367 -5.58569763 1.83288724 -10 1 C-10 0.67 -10 0.34 -10 0 C-6.30458414 -0.95024979 -3.69541586 -0.95024979 0 0 Z " fill="#EDB8BF" transform="translate(49,101)"/>
</svg>
