<?xml version="1.0" encoding="UTF-8"?>
<svg version="1.1" xmlns="http://www.w3.org/2000/svg" width="190" height="201">
<path d="M0 0 C62.7 0 125.4 0 190 0 C190 66.33 190 132.66 190 201 C127.3 201 64.6 201 0 201 C0 134.67 0 68.34 0 0 Z " fill="#FDFDFD" transform="translate(0,0)"/>
<path d="M0 0 C0.66 0 1.32 0 2 0 C2.495 4.455 2.495 4.455 3 9 C3.33 6.69 3.66 4.38 4 2 C4.66 2 5.32 2 6 2 C6.495 6.95 6.495 6.95 7 12 C8.32 11.34 9.64 10.68 11 10 C9.46697365 16.51536197 9.46697365 16.51536197 6.98632812 19.08984375 C4.31685298 23.0008742 4.39788555 25.95185086 4.390625 30.58203125 C4.37408875 31.39621017 4.35755249 32.2103891 4.34051514 33.04924011 C4.29212212 35.6370708 4.27068432 38.22431426 4.25 40.8125 C4.22183292 42.57229503 4.19190445 44.33206281 4.16015625 46.09179688 C4.08636591 50.39448288 4.0367385 54.69684457 4 59 C8.29 59 12.58 59 17 59 C16.54946494 55.60296568 16.08989479 52.20757303 15.625 48.8125 C15.49867187 47.85279297 15.37234375 46.89308594 15.2421875 45.90429688 C15.11328125 44.97294922 14.984375 44.04160156 14.8515625 43.08203125 C14.73635254 42.22843018 14.62114258 41.3748291 14.50244141 40.49536133 C13.67144841 36.36825761 12.20879686 33.31319528 9.875 29.8125 C8 27 8 27 8 25 C8.66 25 9.32 25 10 25 C10 22.69 10 20.38 10 18 C10.66 18 11.32 18 12 18 C12.33 17.34 12.66 16.68 13 16 C15.375 16.3125 15.375 16.3125 18 17 C20.48135447 20.7220317 20.02764954 23.30032993 19.8125 27.5625 C19.56225932 36.02928292 21.36447329 43.24702016 23.90625 51.26953125 C25 55 25 55 25 59 C37.54 59 50.08 59 63 59 C63 61.31 63 63.62 63 66 C20.1 66 -22.8 66 -67 66 C-67 63.69 -67 61.38 -67 59 C-58.09 59 -49.18 59 -40 59 C-39.67 56.81375 -39.34 54.6275 -39 52.375 C-38.814375 51.14523438 -38.62875 49.91546875 -38.4375 48.6484375 C-37.73001519 42.74851956 -37.96836307 38.58700155 -40 33 C-40 32.34 -40 31.68 -40 31 C-39.34 31 -38.68 31 -38 31 C-38 31.99 -38 32.98 -38 34 C-37.34 34 -36.68 34 -36 34 C-36 31.03 -36 28.06 -36 25 C-34.35 24.67 -32.7 24.34 -31 24 C-30.505 24.99 -30.505 24.99 -30 26 C-29.34 26 -28.68 26 -28 26 C-26.90400641 30.38397436 -26.554606 32.69863169 -28.90625 36.625 C-31.39593659 41.32943847 -31.86286255 45.74944827 -32.25 51 C-32.32734375 51.87011719 -32.4046875 52.74023438 -32.484375 53.63671875 C-32.6707372 55.75658876 -32.8374406 57.87817198 -33 60 C-28.05 59.505 -28.05 59.505 -23 59 C-20.6905288 37.99123082 -20.6905288 37.99123082 -24.34375 17.734375 C-25 16 -25 16 -25 13 C-24.34 13 -23.68 13 -23 13 C-22.505 14.485 -22.505 14.485 -22 16 C-22 14.02 -22 12.04 -22 10 C-21.34 10 -20.68 10 -20 10 C-19.67 9.34 -19.34 8.68 -19 8 C-17.02 8.66 -15.04 9.32 -13 10 C-12.505 13.96 -12.505 13.96 -12 18 C-11.01 17.67 -10.02 17.34 -9 17 C-9.3708199 20.2446741 -9.77481084 21.7525054 -12.00878906 24.20776367 C-14.57584221 27.80749232 -14.5393752 30.09579403 -14.609375 34.48828125 C-14.62591125 35.19147995 -14.64244751 35.89467865 -14.65948486 36.6191864 C-14.7078094 38.85038112 -14.7292991 41.0808952 -14.75 43.3125 C-14.77817302 44.83141417 -14.80810232 46.35029684 -14.83984375 47.86914062 C-14.91356111 51.57927971 -14.96323205 55.2892898 -15 59 C-11.7 59 -8.4 59 -5 59 C-4.80678606 53.57435402 -4.62822046 48.14849121 -4.46289062 42.72192383 C-4.40468837 40.87804416 -4.34256738 39.03428367 -4.27636719 37.19067383 C-4.18160419 34.53228472 -4.10119738 31.87377808 -4.0234375 29.21484375 C-3.99124115 28.39789536 -3.9590448 27.58094696 -3.9258728 26.73924255 C-3.79595756 21.71389642 -4.38069854 17.76372362 -6 13 C-6.66666667 10.66666667 -7.33333333 8.33333333 -8 6 C-7.01 6.33 -6.02 6.66 -5 7 C-4.505 8.485 -4.505 8.485 -4 10 C-4 7.36 -4 4.72 -4 2 C-3.34 2 -2.68 2 -2 2 C-1.505 2.99 -1.505 2.99 -1 4 C-0.67 2.68 -0.34 1.36 0 0 Z " fill="#101010" transform="translate(95,80)"/>
<path d="M0 0 C40.26 0 80.52 0 122 0 C122 0.33 122 0.66 122 1 C120.02 1.33 118.04 1.66 116 2 C116 5.3 116 8.6 116 12 C115.34 12 114.68 12 114 12 C114 10.68 114 9.36 114 8 C113.34 8 112.68 8 112 8 C112 9.32 112 10.64 112 12 C111.14535156 12.06058594 110.29070312 12.12117187 109.41015625 12.18359375 C108.30542969 12.26738281 107.20070313 12.35117188 106.0625 12.4375 C104.96035156 12.51871094 103.85820312 12.59992188 102.72265625 12.68359375 C100.08890097 12.70418084 100.08890097 12.70418084 99 14 C96.5 14.125 96.5 14.125 94 14 C93 13 93 13 92.9375 10.4375 C92.958125 9.633125 92.97875 8.82875 93 8 C92.01 8 91.02 8 90 8 C90 9.32 90 10.64 90 12 C84.72 12 79.44 12 74 12 C74 11.01 74 10.02 74 9 C72.35 9 70.7 9 69 9 C69 9.99 69 10.98 69 12 C68.34 12 67.68 12 67 12 C66.97310784 10.52093108 66.95365379 9.04172517 66.9375 7.5625 C66.92589844 6.73878906 66.91429688 5.91507813 66.90234375 5.06640625 C67 3 67 3 68 2 C63.05 2 58.1 2 53 2 C53 3.32 53 4.64 53 6 C53.556875 5.814375 54.11375 5.62875 54.6875 5.4375 C57.399133 4.92448835 59.34371039 5.3359276 62 6 C63.125 10.75 63.125 10.75 62 13 C57.83861737 13.08159574 54.0527516 12.98248524 50 12 C50 10.68 50 9.36 50 8 C49.01 8 48.02 8 47 8 C47 9.32 47 10.64 47 12 C42.71 12 38.42 12 34 12 C34.66 11.67 35.32 11.34 36 11 C36 10.01 36 9.02 36 8 C35.01 8 34.02 8 33 8 C33 9.98 33 11.96 33 14 C32.34 14 31.68 14 31 14 C31 13.34 31 12.68 31 12 C28.69 12 26.38 12 24 12 C24 11.67 24 11.34 24 11 C25.65 11 27.3 11 29 11 C29 10.34 29 9.68 29 9 C27.72125 8.938125 26.4425 8.87625 25.125 8.8125 C24.40570313 8.77769531 23.68640625 8.74289063 22.9453125 8.70703125 C22.30335937 8.80371094 21.66140625 8.90039062 21 9 C20.01 10.485 20.01 10.485 19 12 C15.375 12.1875 15.375 12.1875 12 12 C12 10.68 12 9.36 12 8 C11.01 8 10.02 8 9 8 C9 9.32 9 10.64 9 12 C6.69 12 4.38 12 2 12 C2 10.02 2 8.04 2 6 C1.34 6 0.68 6 0 6 C0 4.02 0 2.04 0 0 Z " fill="#F4FAF3" transform="translate(28,146)"/>
<path d="M0 0 C3.50473291 2.00470723 6.31218792 4.03669002 8.75 7.3125 C9.47723068 10.88254153 9.47730078 13.04484546 7.640625 16.24609375 C4.18957944 20.70833277 1.25732615 22.32118129 -4.25 23.3125 C-2.27 26.2825 -2.27 26.2825 -0.25 29.3125 C-5.21114631 28.8614867 -6.81641842 27.74608158 -10.25 24.3125 C-12.57671854 23.62310191 -14.91067594 22.95783078 -17.25 22.3125 C-21.49784745 19.94350815 -24.43287186 17.90876528 -26.25 13.3125 C-26.5 9.9375 -26.5 9.9375 -25.25 6.3125 C-18.09619667 -0.81302743 -9.67061325 -4.55087682 0 0 Z " fill="#CE1C1C" transform="translate(85.25,45.6875)"/>
<path d="M0 0 C5.05156958 -0.22000136 8.50494072 0.26371048 12.83203125 3.1484375 C15.48079487 5.62061688 15.80383812 6.95460972 16.33203125 10.5859375 C15.68183034 15.21861896 14.50843059 16.2973523 10.83203125 19.1484375 C8.59269013 20.48726066 6.33371798 21.74028733 4.015625 22.9375 C1.76726343 24.11453918 1.76726343 24.11453918 -0.3203125 25.796875 C-2.16796875 27.1484375 -2.16796875 27.1484375 -4.16796875 27.1484375 C-3.50796875 25.1684375 -2.84796875 23.1884375 -2.16796875 21.1484375 C-3.74578125 20.8390625 -3.74578125 20.8390625 -5.35546875 20.5234375 C-9.90260361 19.21105305 -11.6465046 17.12165373 -14.16796875 13.1484375 C-14.85546875 10.1484375 -14.85546875 10.1484375 -14.16796875 7.1484375 C-11.80334263 3.68623747 -9.37413576 1.52368946 -5.35546875 0.2734375 C-3.56936004 0.20339402 -1.78330646 0.12210026 0 0 Z " fill="#5197D5" transform="translate(107.16796875,24.8515625)"/>
<path d="M0 0 C10.56 0 21.12 0 32 0 C32 0.33 32 0.66 32 1 C30.35 1 28.7 1 27 1 C27 1.66 27 2.32 27 3 C27.99 3.33 28.98 3.66 30 4 C30 4.99 30 5.98 30 7 C30.66 7.33 31.32 7.66 32 8 C32 7.34 32 6.68 32 6 C34.375 5.875 34.375 5.875 37 6 C37.66 6.66 38.32 7.32 39 8 C39.33 7.34 39.66 6.68 40 6 C43.63 6 47.26 6 51 6 C51.33 5.34 51.66 4.68 52 4 C52 4.66 52 5.32 52 6 C52.721875 5.814375 53.44375 5.62875 54.1875 5.4375 C57.12826973 4.98004693 59.14103058 5.26483643 62 6 C63.125 10.75 63.125 10.75 62 13 C57.83861737 13.08159574 54.0527516 12.98248524 50 12 C50 10.68 50 9.36 50 8 C49.01 8 48.02 8 47 8 C47 9.32 47 10.64 47 12 C42.71 12 38.42 12 34 12 C34.66 11.67 35.32 11.34 36 11 C36 10.01 36 9.02 36 8 C35.01 8 34.02 8 33 8 C33 9.98 33 11.96 33 14 C32.34 14 31.68 14 31 14 C31 13.34 31 12.68 31 12 C28.69 12 26.38 12 24 12 C24 11.67 24 11.34 24 11 C25.65 11 27.3 11 29 11 C29 10.34 29 9.68 29 9 C27.72125 8.938125 26.4425 8.87625 25.125 8.8125 C24.40570313 8.77769531 23.68640625 8.74289063 22.9453125 8.70703125 C22.30335937 8.80371094 21.66140625 8.90039062 21 9 C20.01 10.485 20.01 10.485 19 12 C15.375 12.1875 15.375 12.1875 12 12 C12 10.68 12 9.36 12 8 C11.01 8 10.02 8 9 8 C9 9.32 9 10.64 9 12 C6.69 12 4.38 12 2 12 C2 10.02 2 8.04 2 6 C1.34 6 0.68 6 0 6 C0 4.02 0 2.04 0 0 Z " fill="#F8FBF6" transform="translate(28,146)"/>
<path d="M0 0 C1.32 0.33 2.64 0.66 4 1 C3.34 1 2.68 1 2 1 C2.33 3.64 2.66 6.28 3 9 C2.01 8.67 1.02 8.34 0 8 C0.40992187 8.54527344 0.81984375 9.09054688 1.2421875 9.65234375 C8.47783643 19.77879022 8.43836615 29.95443195 9 42 C4.71 42 0.42 42 -4 42 C-4.09908128 36.8222407 -4.17156806 31.64503653 -4.21972656 26.46655273 C-4.23980786 24.70603825 -4.26707879 22.94559018 -4.30175781 21.18530273 C-4.35043112 18.65071198 -4.37300305 16.11700505 -4.390625 13.58203125 C-4.41127014 12.79850784 -4.43191528 12.01498444 -4.45318604 11.2077179 C-4.45477354 7.317358 -4.15922626 5.23882019 -1.97558594 1.96362305 C-1.32364258 1.31562744 -0.67169922 0.66763184 0 0 Z " fill="#EAEAEA" transform="translate(103,97)"/>
<path d="M0 0 C5.28146738 0.03788714 8.12232841 1.23609927 12.375 4.3125 C13.86605779 7.29461558 13.88494661 8.99784705 13.375 12.3125 C9.71071673 16.8481677 3.92926207 20.5617 -1.625 22.3125 C-2.615 21.9825 -3.605 21.6525 -4.625 21.3125 C-3.965 19.9925 -3.305 18.6725 -2.625 17.3125 C-3.49125 17.18875 -3.49125 17.18875 -4.375 17.0625 C-7.39407279 16.0561424 -8.70689897 14.84713351 -10.625 12.3125 C-11.1875 9.375 -11.1875 9.375 -10.625 6.3125 C-8.1875 3.5 -8.1875 3.5 -5.625 1.3125 C-4.00318691 -0.30931309 -2.23605363 0.06417677 0 0 Z " fill="#74D04C" transform="translate(109.625,59.6875)"/>
<path d="M0 0 C0.99 0 1.98 0 3 0 C3 30.69 3 61.38 3 93 C2.01 93 1.02 93 0 93 C0 62.31 0 31.62 0 0 Z " fill="#FD4068" transform="translate(0,0)"/>
<path d="M0 0 C9.57 0 19.14 0 29 0 C29 0.33 29 0.66 29 1 C27.02 1.33 25.04 1.66 23 2 C23 5.3 23 8.6 23 12 C22.34 12 21.68 12 21 12 C21 10.68 21 9.36 21 8 C20.34 8 19.68 8 19 8 C19 9.32 19 10.64 19 12 C13.72 12 8.44 12 3 12 C2.67 10.35 2.34 8.7 2 7 C3.32 6.67 4.64 6.34 6 6 C5.01 6.495 5.01 6.495 4 7 C4 7.99 4 8.98 4 10 C4.99 10 5.98 10 7 10 C7 7.36 7 4.72 7 2 C4.69 1.67 2.38 1.34 0 1 C0 0.67 0 0.34 0 0 Z " fill="#F3FAF0" transform="translate(121,146)"/>
<path d="M0 0 C1.65 0 3.3 0 5 0 C5 0.99 5 1.98 5 3 C5.66 3.33 6.32 3.66 7 4 C7 3.34 7 2.68 7 2 C9.375 1.875 9.375 1.875 12 2 C12.66 2.66 13.32 3.32 14 4 C14.33 3.34 14.66 2.68 15 2 C18.63 2 22.26 2 26 2 C26.33 1.34 26.66 0.68 27 0 C27 0.66 27 1.32 27 2 C27.721875 1.814375 28.44375 1.62875 29.1875 1.4375 C32.12826973 0.98004693 34.14103058 1.26483643 37 2 C38.125 6.75 38.125 6.75 37 9 C32.83861737 9.08159574 29.0527516 8.98248524 25 8 C25 6.68 25 5.36 25 4 C24.01 4 23.02 4 22 4 C22 5.32 22 6.64 22 8 C17.71 8 13.42 8 9 8 C9.66 7.67 10.32 7.34 11 7 C11 6.01 11 5.02 11 4 C10.01 4 9.02 4 8 4 C8 5.98 8 7.96 8 10 C7.34 10 6.68 10 6 10 C6 9.34 6 8.68 6 8 C3.69 8 1.38 8 -1 8 C-1 7.67 -1 7.34 -1 7 C0.65 7 2.3 7 4 7 C4 6.34 4 5.68 4 5 C2.35 4.67 0.7 4.34 -1 4 C-0.67 2.68 -0.34 1.36 0 0 Z " fill="#DCF7D1" transform="translate(53,150)"/>
<path d="M0 0 C-0.33 1.32 -0.66 2.64 -1 4 C-2.32 4 -3.64 4 -5 4 C-5 4.66 -5 5.32 -5 6 C-7.97 5.505 -7.97 5.505 -11 5 C-11.33 5.99 -11.66 6.98 -12 8 C-12.66 7.34 -13.32 6.68 -14 6 C-16.57061311 5.35232207 -16.57061311 5.35232207 -19 5 C-19 5.66 -19 6.32 -19 7 C-21.97 6.505 -21.97 6.505 -25 6 C-23.68 5.67 -22.36 5.34 -21 5 C-21 4.34 -21 3.68 -21 3 C-22.65 3 -24.3 3 -26 3 C-25.34 2.67 -24.68 2.34 -24 2 C-24 1.34 -24 0.68 -24 0 C-16.1882016 -2.08314624 -7.90090258 -1.0194713 0 0 Z " fill="#F1FBED" transform="translate(79,147)"/>
<path d="M0 0 C6.15234375 -0.09765625 6.15234375 -0.09765625 8 0 C8.33 0.33 8.66 0.66 9 1 C11.32817964 1.36760731 13.6618385 1.70241581 16 2 C16 3.65 16 5.3 16 7 C16.66 7 17.32 7 18 7 C18 5.68 18 4.36 18 3 C18.66 3 19.32 3 20 3 C20 4.98 20 6.96 20 9 C15.71 9 11.42 9 7 9 C7 8.01 7 7.02 7 6 C5.35 6 3.7 6 2 6 C2 6.99 2 7.98 2 9 C1.34 9 0.68 9 0 9 C0 6.03 0 3.06 0 0 Z " fill="#E3F6D8" transform="translate(95,149)"/>
<path d="M0 0 C0.99 0.66 1.98 1.32 3 2 C3 2.99 3 3.98 3 5 C6.63 5 10.26 5 14 5 C13.67 6.98 13.34 8.96 13 11 C10.69 11 8.38 11 6 11 C6 9.68 6 8.36 6 7 C5.01 7 4.02 7 3 7 C3 8.32 3 9.64 3 11 C0.69 11 -1.62 11 -4 11 C-4 9.02 -4 7.04 -4 5 C-4.66 5 -5.32 5 -6 5 C-6 4.01 -6 3.02 -6 2 C-4.02 2 -2.04 2 0 2 C0 1.34 0 0.68 0 0 Z " fill="#B3E4A0" transform="translate(34,147)"/>
<path d="M0 0 C1.37478516 0.01740234 1.37478516 0.01740234 2.77734375 0.03515625 C3.69644531 0.04417969 4.61554688 0.05320313 5.5625 0.0625 C6.27277344 0.07410156 6.98304687 0.08570313 7.71484375 0.09765625 C7.71484375 0.42765625 7.71484375 0.75765625 7.71484375 1.09765625 C5.40484375 1.09765625 3.09484375 1.09765625 0.71484375 1.09765625 C-0.33003205 5.72496336 -0.80271904 10.38619503 -1.28515625 15.09765625 C0.03484375 15.75765625 1.35484375 16.41765625 2.71484375 17.09765625 C2.38484375 17.75765625 2.05484375 18.41765625 1.71484375 19.09765625 C2.37484375 19.42765625 3.03484375 19.75765625 3.71484375 20.09765625 C2.72484375 20.75765625 1.73484375 21.41765625 0.71484375 22.09765625 C-0.27515625 21.76765625 -1.26515625 21.43765625 -2.28515625 21.09765625 C-1.62515625 19.77765625 -0.96515625 18.45765625 -0.28515625 17.09765625 C-1.15140625 16.97390625 -1.15140625 16.97390625 -2.03515625 16.84765625 C-5.05422904 15.84129865 -6.36705522 14.63228976 -8.28515625 12.09765625 C-8.84765625 9.16015625 -8.84765625 9.16015625 -8.28515625 6.09765625 C-5.84765625 3.28515625 -5.84765625 3.28515625 -3.28515625 1.09765625 C-2.28515625 0.09765625 -2.28515625 0.09765625 0 0 Z " fill="#78D053" transform="translate(107.28515625,59.90234375)"/>
<path d="M0 0 C1.65 0 3.3 0 5 0 C5 0.99 5 1.98 5 3 C5.66 3.33 6.32 3.66 7 4 C7 3.34 7 2.68 7 2 C9.375 1.875 9.375 1.875 12 2 C12.66 2.66 13.32 3.32 14 4 C14.33 3.34 14.66 2.68 15 2 C16.32 2 17.64 2 19 2 C19 3.98 19 5.96 19 8 C15.7 8 12.4 8 9 8 C9.66 7.67 10.32 7.34 11 7 C11 6.01 11 5.02 11 4 C10.01 4 9.02 4 8 4 C8 5.98 8 7.96 8 10 C7.34 10 6.68 10 6 10 C6 9.34 6 8.68 6 8 C3.69 8 1.38 8 -1 8 C-1 7.67 -1 7.34 -1 7 C0.65 7 2.3 7 4 7 C4 6.34 4 5.68 4 5 C2.35 4.67 0.7 4.34 -1 4 C-0.67 2.68 -0.34 1.36 0 0 Z " fill="#ADDA99" transform="translate(53,150)"/>
<path d="M0 0 C0.66 0 1.32 0 2 0 C2.33 0.99 2.66 1.98 3 3 C4.65 3.33 6.3 3.66 8 4 C7.67 5.65 7.34 7.3 7 9 C3.37 9 -0.26 9 -4 9 C-4.33 7.35 -4.66 5.7 -5 4 C-3.68 3.67 -2.36 3.34 -1 3 C-1.99 3.495 -1.99 3.495 -3 4 C-3 4.99 -3 5.98 -3 7 C-2.01 7 -1.02 7 0 7 C0 4.69 0 2.38 0 0 Z " fill="#B4E59F" transform="translate(128,149)"/>
<path d="M0 0 C1.97909398 -0.02686553 3.95828971 -0.04633375 5.9375 -0.0625 C7.03964844 -0.07410156 8.14179688 -0.08570313 9.27734375 -0.09765625 C12 0 12 0 13 1 C13.04063832 2.66617115 13.042721 4.33388095 13 6 C12.34 6 11.68 6 11 6 C11 4.68 11 3.36 11 2 C10.01 2 9.02 2 8 2 C8 3.32 8 4.64 8 6 C5.36 6 2.72 6 0 6 C0 4.02 0 2.04 0 0 Z " fill="#B8E4A4" transform="translate(145,152)"/>
<path d="M0 0 C2.375 0.3125 2.375 0.3125 5 1 C7.20914 4.31371 7.22481553 5.3446021 7.125 9.1875 C7.10695313 10.08855469 7.08890625 10.98960938 7.0703125 11.91796875 C7.03550781 12.94857422 7.03550781 12.94857422 7 14 C6.67 14 6.34 14 6 14 C6 12.02 6 10.04 6 8 C2.95086772 6.98888907 2.95086772 6.98888907 0 8 C-0.33 8.99 -0.66 9.98 -1 11 C-1.99 11.33 -2.98 11.66 -4 12 C-4.33 11.01 -4.66 10.02 -5 9 C-4.34 9 -3.68 9 -3 9 C-3 6.69 -3 4.38 -3 2 C-2.34 2 -1.68 2 -1 2 C-0.67 1.34 -0.34 0.68 0 0 Z " fill="#545454" transform="translate(108,96)"/>
<path d="M0 0 C-0.33 1.32 -0.66 2.64 -1 4 C-2.32 4 -3.64 4 -5 4 C-5 4.66 -5 5.32 -5 6 C-5.66 6 -6.32 6 -7 6 C-7.4125 5.484375 -7.825 4.96875 -8.25 4.4375 C-10.03682848 2.62434952 -10.03682848 2.62434952 -13.1875 3.3125 C-14.5796875 3.6528125 -14.5796875 3.6528125 -16 4 C-16 2.68 -16 1.36 -16 0 C-10.49983036 -1.30267176 -5.52967941 -0.71033431 0 0 Z " fill="#FBFCFB" transform="translate(79,147)"/>
<path d="M0 0 C0.99 0.99 1.98 1.98 3 3 C2.34 3 1.68 3 1 3 C1 5.64 1 8.28 1 11 C-0.65 11 -2.3 11 -4 11 C-4 9.02 -4 7.04 -4 5 C-4.66 5 -5.32 5 -6 5 C-6 4.01 -6 3.02 -6 2 C-4.02 2 -2.04 2 0 2 C0 1.34 0 0.68 0 0 Z " fill="#ECFCE3" transform="translate(34,147)"/>
<path d="M0 0 C0.66 0 1.32 0 2 0 C2 2.97 2 5.94 2 9 C1.34 9 0.68 9 0 9 C0 7.68 0 6.36 0 5 C-0.66 5 -1.32 5 -2 5 C-2 6.32 -2 7.64 -2 9 C-2.66 9 -3.32 9 -4 9 C-5.125 3.25 -5.125 3.25 -4 1 C-2.02 1.495 -2.02 1.495 0 2 C0 1.34 0 0.68 0 0 Z " fill="#B9E1A7" transform="translate(142,149)"/>
<path d="M0 0 C1.32 0.33 2.64 0.66 4 1 C4.33 3.64 4.66 6.28 5 9 C5.99 8.67 6.98 8.34 8 8 C7.25 12.75 7.25 12.75 5 15 C5 14.01 5 13.02 5 12 C4.34 12 3.68 12 3 12 C2.67 10.02 2.34 8.04 2 6 C1.01 6.495 1.01 6.495 0 7 C0 4.69 0 2.38 0 0 Z " fill="#656565" transform="translate(78,89)"/>
<path d="M0 0 C0.33 0 0.66 0 1 0 C1 2.64 1 5.28 1 8 C0.34 8 -0.32 8 -1 8 C-1 6.68 -1 5.36 -1 4 C-1.99 4 -2.98 4 -4 4 C-4 5.32 -4 6.64 -4 8 C-4.99 7.67 -5.98 7.34 -7 7 C-7 5.68 -7 4.36 -7 3 C-3.535 2.505 -3.535 2.505 0 2 C0 1.34 0 0.68 0 0 Z " fill="#B7DDA6" transform="translate(79,150)"/>
<path d="M0 0 C0.66 0.33 1.32 0.66 2 1 C1.67 1.66 1.34 2.32 1 3 C0.34 3 -0.32 3 -1 3 C-0.814375 3.721875 -0.62875 4.44375 -0.4375 5.1875 C0.01995307 8.12826973 -0.26483643 10.14103058 -1 13 C-2.5625 11.9375 -2.5625 11.9375 -4 10 C-3.87059529 6.3766682 -3.75012072 3.93014969 -1.4375 1.0625 C-0.7259375 0.5365625 -0.7259375 0.5365625 0 0 Z " fill="#CB3F41" transform="translate(63,49)"/>
<path d="M0 0 C1.98 0 3.96 0 6 0 C6 1.65 6 3.3 6 5 C4.68 5 3.36 5 2 5 C2 5.99 2 6.98 2 8 C1.34 8 0.68 8 0 8 C0 5.36 0 2.72 0 0 Z " fill="#B1DBA0" transform="translate(95,150)"/>
<path d="M0 0 C0.33 0 0.66 0 1 0 C1.4375 2.625 1.4375 2.625 1 6 C-1.76015616 9.39171731 -4.74881525 11.62730667 -8.9375 12.875 C-9.9584375 12.936875 -9.9584375 12.936875 -11 13 C-9.625 11.5 -9.625 11.5 -8 10 C-7.34 10 -6.68 10 -6 10 C-6 9.34 -6 8.68 -6 8 C-5.01 8 -4.02 8 -3 8 C-3.33 7.01 -3.66 6.02 -4 5 C-3.01 5 -2.02 5 -1 5 C-0.67 3.35 -0.34 1.7 0 0 Z " fill="#8FD473" transform="translate(122,66)"/>
<path d="M0 0 C1.65 0 3.3 0 5 0 C5 1.98 5 3.96 5 6 C3.35 6 1.7 6 0 6 C0 4.02 0 2.04 0 0 Z " fill="#AFE199" transform="translate(103,152)"/>
<path d="M0 0 C2.64 0.66 5.28 1.32 8 2 C8 2.66 8 3.32 8 4 C9.45833358 5.62514468 9.45833358 5.62514468 11 7 C6.4923533 6.46968862 3.58045212 4.74778884 0 2 C0 1.34 0 0.68 0 0 Z " fill="#C33537" transform="translate(62,62)"/>
<path d="M0 0 C1.32 0 2.64 0 4 0 C4 1.98 4 3.96 4 6 C2.35 6 0.7 6 -1 6 C-0.67 4.02 -0.34 2.04 0 0 Z " fill="#A6DC8C" transform="translate(68,152)"/>
<path d="M0 0 C0.66 0 1.32 0 2 0 C2 0.66 2 1.32 2 2 C3.32 2 4.64 2 6 2 C6 3.98 6 5.96 6 8 C5.67 6.68 5.34 5.36 5 4 C4.01 4 3.02 4 2 4 C2 5.32 2 6.64 2 8 C1.34 8 0.68 8 0 8 C0 5.36 0 2.72 0 0 Z " fill="#AED89C" transform="translate(35,150)"/>
<path d="M0 0 C0.66 0 1.32 0 2 0 C2 1.32 2 2.64 2 4 C2.66 4 3.32 4 4 4 C4 2.68 4 1.36 4 0 C4.66 0 5.32 0 6 0 C6 1.98 6 3.96 6 6 C4.33388095 6.042721 2.66617115 6.04063832 1 6 C0 5 0 5 -0.0625 2.4375 C-0.041875 1.633125 -0.02125 0.82875 0 0 Z " fill="#AFDC9B" transform="translate(109,152)"/>
<path d="M0 0 C1.9375 0.5625 1.9375 0.5625 4 2 C4.75 5.625 4.75 5.625 5 9 C2 9 2 9 0 8 C-0.6875 4.5 -0.6875 4.5 -1 1 C-0.67 0.67 -0.34 0.34 0 0 Z " fill="#4C4C4C" transform="translate(63,104)"/>
<path d="M0 0 C0.66 0.33 1.32 0.66 2 1 C1.67 3.64 1.34 6.28 1 9 C-0.32 9.33 -1.64 9.66 -3 10 C-3 7.36 -3 4.72 -3 2 C-2.34 2 -1.68 2 -1 2 C-0.67 1.34 -0.34 0.68 0 0 Z " fill="#595959" transform="translate(76,88)"/>
<path d="M0 0 C0.33 0 0.66 0 1 0 C1 2.31 1 4.62 1 7 C-0.65 7.33 -2.3 7.66 -4 8 C-4.33 6.35 -4.66 4.7 -5 3 C-3.68 2.67 -2.36 2.34 -1 2 C-1.99 2.495 -1.99 2.495 -3 3 C-3 3.99 -3 4.98 -3 6 C-2.01 6 -1.02 6 0 6 C0 4.02 0 2.04 0 0 Z " fill="#A7D492" transform="translate(128,150)"/>
<path d="M0 0 C2.64 0.66 5.28 1.32 8 2 C7.67 2.99 7.34 3.98 7 5 C7.66 5.33 8.32 5.66 9 6 C8.01 6.66 7.02 7.32 6 8 C5.01 7.67 4.02 7.34 3 7 C3.66 5.68 4.32 4.36 5 3 C4.360625 2.87625 3.72125 2.7525 3.0625 2.625 C2.381875 2.41875 1.70125 2.2125 1 2 C0.67 1.34 0.34 0.68 0 0 Z " fill="#9CD781" transform="translate(102,74)"/>
<path d="M0 0 C2 1.0625 2 1.0625 4 3 C4.25 6.6875 4.25 6.6875 4 10 C3.67 8.68 3.34 7.36 3 6 C1.68 6 0.36 6 -1 6 C-0.67 4.02 -0.34 2.04 0 0 Z " fill="#C72E2C" transform="translate(90,50)"/>
<path d="M0 0 C0.99 0.66 1.98 1.32 3 2 C1.87926138 2.83905565 0.75325453 3.67107831 -0.375 4.5 C-1.00148438 4.9640625 -1.62796875 5.428125 -2.2734375 5.90625 C-4 7 -4 7 -6 7 C-5.34 5.02 -4.68 3.04 -4 1 C-2.68 1.33 -1.36 1.66 0 2 C0 1.34 0 0.68 0 0 Z " fill="#7CABD4" transform="translate(109,45)"/>
<path d="M0 0 C1.98 0 3.96 0 6 0 C6 0.66 6 1.32 6 2 C5.34 2 4.68 2 4 2 C4 3.98 4 5.96 4 8 C3.34 8 2.68 8 2 8 C2 6.02 2 4.04 2 2 C1.34 2 0.68 2 0 2 C0 1.34 0 0.68 0 0 Z " fill="#B2DB9C" transform="translate(28,150)"/>
<path d="M0 0 C0 0.33 0 0.66 0 1 C-2.97 1 -5.94 1 -9 1 C-8.67 2.32 -8.34 3.64 -8 5 C-10.97 4.505 -10.97 4.505 -14 4 C-10.36515075 -1.28705346 -5.79646176 -0.3982302 0 0 Z " fill="#92D477" transform="translate(115,60)"/>
<path d="M0 0 C0.33 0 0.66 0 1 0 C1 2.31 1 4.62 1 7 C0.67 6.34 0.34 5.68 0 5 C-0.66 5 -1.32 5 -2 5 C-2 5.66 -2 6.32 -2 7 C-2.66 6.67 -3.32 6.34 -4 6 C-4 4.35 -4 2.7 -4 1 C-2.68 1.33 -1.36 1.66 0 2 C0 1.34 0 0.68 0 0 Z " fill="#EEFAE9" transform="translate(94,151)"/>
<path d="M0 0 C1.66611905 -0.042721 3.33382885 -0.04063832 5 0 C6 1 6 1 6.0625 3.5625 C6.041875 4.366875 6.02125 5.17125 6 6 C5.34 6 4.68 6 4 6 C4 4.68 4 3.36 4 2 C3.01 2 2.02 2 1 2 C0.67 3.32 0.34 4.64 0 6 C0 4.02 0 2.04 0 0 Z " fill="#B4D39D" transform="translate(152,152)"/>
<path d="M0 0 C1.66611905 -0.042721 3.33382885 -0.04063832 5 0 C6 1 6 1 6.0625 3.5625 C6.041875 4.366875 6.02125 5.17125 6 6 C5.67 4.68 5.34 3.36 5 2 C4.01 2 3.02 2 2 2 C2 3.32 2 4.64 2 6 C1.34 6 0.68 6 0 6 C0 4.02 0 2.04 0 0 Z " fill="#ADD897" transform="translate(116,152)"/>
<path d="M0 0 C1.32 0 2.64 0 4 0 C4 1.98 4 3.96 4 6 C2.68 6 1.36 6 0 6 C0 4.02 0 2.04 0 0 Z " fill="#BEE6A8" transform="translate(80,152)"/>
<path d="M0 0 C0 0.66 0 1.32 0 2 C-3.3 2 -6.6 2 -10 2 C-6.64608848 -1.35391152 -4.35183427 -1.05855428 0 0 Z " fill="#F0FBE9" transform="translate(156,150)"/>
<path d="M0 0 C0.99 0.33 1.98 0.66 3 1 C3 2.32 3 3.64 3 5 C4.32 5.66 5.64 6.32 7 7 C6 8 6 8 3.4375 8.0625 C2.633125 8.041875 1.82875 8.02125 1 8 C-0.35439668 5.29120665 -0.06501451 2.99066732 0 0 Z " fill="#E2FADA" transform="translate(121,152)"/>
<path d="M0 0 C0.66 0 1.32 0 2 0 C4.20914 3.31371 4.22481553 4.3446021 4.125 8.1875 C4.10695313 9.08855469 4.08890625 9.98960938 4.0703125 10.91796875 C4.03550781 11.94857422 4.03550781 11.94857422 4 13 C3.67 13 3.34 13 3 13 C3 11.02 3 9.04 3 7 C2.34 7 1.68 7 1 7 C0.67 4.69 0.34 2.38 0 0 Z " fill="#696969" transform="translate(111,97)"/>
<path d="M0 0 C0.99 0 1.98 0 3 0 C3.33 0.99 3.66 1.98 4 3 C4.66 3.33 5.32 3.66 6 4 C2.25 6 2.25 6 0 6 C0 4.02 0 2.04 0 0 Z " fill="#E1F8D3" transform="translate(61,154)"/>
<path d="M0 0 C1.32 0 2.64 0 4 0 C4.33 1.65 4.66 3.3 5 5 C3.35 5.33 1.7 5.66 0 6 C0.99 5.67 1.98 5.34 3 5 C3 4.34 3 3.68 3 3 C2.01 3 1.02 3 0 3 C0 2.01 0 1.02 0 0 Z " fill="#9FCF88" transform="translate(86,152)"/>
<path d="M0 0 C1.65 1.65 3.3 3.3 5 5 C3.25 5.75 3.25 5.75 1 6 C-1.25 4.0625 -1.25 4.0625 -3 2 C-2.34 2 -1.68 2 -1 2 C-0.67 1.34 -0.34 0.68 0 0 Z " fill="#C24346" transform="translate(80,69)"/>
<path d="M0 0 C0.66 0 1.32 0 2 0 C3.10844919 3.32534757 2.84454356 5.62182575 2 9 C1.01 9.33 0.02 9.66 -1 10 C-1.33 9.01 -1.66 8.02 -2 7 C-1.34 7 -0.68 7 0 7 C0 4.69 0 2.38 0 0 Z " fill="#434343" transform="translate(105,98)"/>
<path d="M0 0 C1.45945288 0.08708669 2.91765868 0.19526907 4.375 0.3125 C5.59316406 0.39951172 5.59316406 0.39951172 6.8359375 0.48828125 C9 1 9 1 11 4 C9.35 4 7.7 4 6 4 C6 3.34 6 2.68 6 2 C5.01 2.33 4.02 2.66 3 3 C3 2.34 3 1.68 3 1 C2.01 0.67 1.02 0.34 0 0 Z " fill="#C32123" transform="translate(79,46)"/>
</svg>
